<svg xmlns="http://www.w3.org/2000/svg" width="107" height="107" viewBox="0 0 107 107">
  <g id="sistema-de-gestion-de-contenidos" transform="translate(-1 -1)">
    <g id="Grupo_959529" data-name="Grupo 959529" transform="translate(2.726 2.726)">
      <g id="Grupo_959517" data-name="Grupo 959517" transform="translate(10.355)">
        <path id="Trazado_725870" data-name="Trazado 725870" d="M70.129,2H14.9A6.9,6.9,0,0,0,8,8.9V78.194a3.2,3.2,0,0,0,6.058,1.432c.293-.587.57-1.174.846-1.778V15.806H70.129v33a3.661,3.661,0,0,1,6.247-2.589l.656.656V8.9a6.9,6.9,0,0,0-6.9-6.9Z" transform="translate(-8 -2)" fill="#969faa"/>
      </g>
      <g id="Grupo_959518" data-name="Grupo 959518" transform="translate(30.098 69.032)">
        <path id="Trazado_725871" data-name="Trazado 725871" d="M67,59.258l-8.2-1.174A13.79,13.79,0,0,1,51.92,55.03l-3.5-2.934a13.822,13.822,0,0,0-7.3-3.089L39.3,48.9a3.373,3.373,0,0,1-1.864-6.178l.639-.431A4.5,4.5,0,0,1,38.562,42H19.475l.846,10.942c.052.759.086,1.519.086,2.3a29.493,29.493,0,0,1-.966,7.473H72.75Z" transform="translate(-19.44 -42)" fill="#969faa"/>
      </g>
      <g id="Grupo_959519" data-name="Grupo 959519" transform="translate(17.258 13.806)">
        <path id="Trazado_725872" data-name="Trazado 725872" d="M67.226,10H12V72.025A52.061,52.061,0,0,0,15.124,63.1l1.294-5.16a4.024,4.024,0,0,1,3.918-3.072A4.05,4.05,0,0,1,24.374,58.6l.5,6.627H67.226Z" transform="translate(-12 -10)" fill="#69d6f4"/>
      </g>
      <g id="Grupo_959520" data-name="Grupo 959520" transform="translate(44.871 55.226)">
        <path id="Trazado_725873" data-name="Trazado 725873" d="M34.9,37.452V40.9H28V34h3.452Z" transform="translate(-28 -34)" fill="#ff826e"/>
      </g>
      <g id="Grupo_959521" data-name="Grupo 959521" transform="translate(31.065 55.226)">
        <path id="Trazado_725874" data-name="Trazado 725874" d="M20,34h6.9v6.9H20Z" transform="translate(-20 -34)" fill="#ff826e"/>
      </g>
      <g id="Grupo_959522" data-name="Grupo 959522" transform="translate(24.161 20.71)">
        <path id="Trazado_725875" data-name="Trazado 725875" d="M16,14H36.71V34.71H16Z" transform="translate(-16 -14)" fill="#d3a06c"/>
      </g>
      <g id="Grupo_959523" data-name="Grupo 959523" transform="translate(31.065 20.71)">
        <path id="Trazado_725876" data-name="Trazado 725876" d="M20,14h6.9v6.9H20Z" transform="translate(-20 -14)" fill="#b27946"/>
      </g>
      <g id="Grupo_959524" data-name="Grupo 959524" transform="translate(37.968 75.935)">
        <path id="Trazado_725877" data-name="Trazado 725877" d="M37.806,46.1v6.8H24V46H36.253A11.74,11.74,0,0,1,37.806,46.1Z" transform="translate(-24 -46)" fill="#e6e9ed"/>
      </g>
      <g id="Grupo_959525" data-name="Grupo 959525" transform="translate(77.661 67.306)">
        <path id="Trazado_725878" data-name="Trazado 725878" d="M72.887,46.177V75.516L52.747,63.435,47,59.984,65.984,41Z" transform="translate(-47 -41)" fill="#b4dd7f"/>
      </g>
      <g id="Grupo_959526" data-name="Grupo 959526" transform="translate(6.903 96.645)">
        <path id="Trazado_725879" data-name="Trazado 725879" d="M6,58H26.71v6.9H6Z" transform="translate(-6 -58)" fill="#b4dd7f"/>
      </g>
      <g id="Grupo_959527" data-name="Grupo 959527" transform="translate(39.694 41.419)">
        <path id="Trazado_725880" data-name="Trazado 725880" d="M58.86,33.973A3.661,3.661,0,0,1,64.038,28.8l.656.656,11.8,11.8a13.855,13.855,0,0,1,3.055,4.625l2.4,6.006L62.968,70.871,54.77,69.7a13.79,13.79,0,0,1-6.886-3.055l-3.5-2.934a13.822,13.822,0,0,0-7.3-3.089v-.1H35.269A3.373,3.373,0,0,1,33.4,54.338l.639-.431a4.5,4.5,0,0,1,.483-.293,12.018,12.018,0,0,1,14.7,1.795l-12.15-12.15-3.452-3.452-6.9-6.9-.656-.656a3.661,3.661,0,0,1,5.177-5.177L45.054,40.876A3.661,3.661,0,0,1,50.231,35.7a3.661,3.661,0,0,1,5.177-5.177Z" transform="translate(-25 -26)" fill="#f0d0b4"/>
      </g>
      <g id="Grupo_959528" data-name="Grupo 959528" transform="translate(0 48.029)">
        <path id="Trazado_725881" data-name="Trazado 725881" d="M32.978,61.775c.052.759.086,1.519.086,2.3a29.492,29.492,0,0,1-.966,7.473,30.567,30.567,0,0,1-1.174,3.624l-1.312,3.279H8.9v-.293L6.66,72.526a29.651,29.651,0,0,1-1.743-6.178L2.242,50.229a17.259,17.259,0,0,1,4.85-15.118l5.264-5.281V58a3.2,3.2,0,0,0,6.058,1.432c.293-.587.57-1.174.846-1.778v-.017a52.061,52.061,0,0,0,3.124-8.922l1.294-5.16a4.024,4.024,0,0,1,3.918-3.072,4.05,4.05,0,0,1,4.038,3.728l.5,6.627Z" transform="translate(-2 -29.83)" fill="#f0d0b4"/>
      </g>
    </g>
    <g id="Grupo_959530" data-name="Grupo 959530" transform="translate(1 1)">
      <ellipse id="Elipse_5728" data-name="Elipse 5728" cx="2" cy="1.5" rx="2" ry="1.5" transform="translate(31 7)"/>
      <path id="Trazado_725882" data-name="Trazado 725882" d="M23,5H47.161V8.452H23Z" transform="translate(14.968 1.903)"/>
      <path id="Trazado_725883" data-name="Trazado 725883" d="M31,13H48.258v3.452H31Z" transform="translate(20.774 7.71)"/>
      <path id="Trazado_725884" data-name="Trazado 725884" d="M39,17h3.452v3.452H39Z" transform="translate(26.581 10.613)"/>
      <path id="Trazado_725885" data-name="Trazado 725885" d="M31,17H41.355v3.452H31Z" transform="translate(20.774 10.613)"/>
      <path id="Trazado_725886" data-name="Trazado 725886" d="M31,21H48.258v3.452H31Z" transform="translate(20.774 13.516)"/>
      <path id="Trazado_725887" data-name="Trazado 725887" d="M31,25H48.258v3.452H31Z" transform="translate(20.774 16.419)"/>
      <path id="Trazado_725888" data-name="Trazado 725888" d="M108,107.6V74.347l-7.207-5.405-2.219-5.548a15.431,15.431,0,0,0-3.44-5.214l-11.3-11.3V9.629A8.639,8.639,0,0,0,75.21,1H19.984a8.639,8.639,0,0,0-8.629,8.629V50.044L6.592,54.807A18.965,18.965,0,0,0,1,68.306a19.337,19.337,0,0,0,.259,3.138L3.944,87.549a31.6,31.6,0,0,0,1.831,6.543L7.9,99.416V108H32.065V99.7l1.191-2.977c.333-.834.616-1.681.877-2.533H85.661Zm-3.452-6.1L83.171,88.673,99.533,72.31l5.015,3.762Zm-9.18-36.824,1.978,4.941L79.778,87.187l-7.348-1.049a12.085,12.085,0,0,1-6.027-2.68L62.9,80.537a15.564,15.564,0,0,0-6.67-3.236v-.366H52.7a1.647,1.647,0,0,1-.916-3.017l.644-.43a10.308,10.308,0,0,1,13.007,1.289l1.653,1.652,2.44-2.44-1.652-1.652L44.711,49.174a1.935,1.935,0,0,1,2.737-2.737L61.255,60.243,68.812,67.8l2.44-2.44L63.7,57.8a1.935,1.935,0,0,1,1.369-3.3,1.927,1.927,0,0,1,1.369.566l7.557,7.557,2.44-2.44-7.557-7.557a1.935,1.935,0,0,1,2.737-2.737l3.452,3.452,4.106,4.106,2.44-2.44L77.5,50.9a1.935,1.935,0,0,1,2.737-2.737L92.7,60.62a12,12,0,0,1,2.673,4.056ZM52.695,80.387h.079v3.452H42.419V80.387Zm-18.5-13.806h8.225V56.226H32.065v4.865a5.737,5.737,0,0,0-9.344,2.958L21.71,68.094V18.258H73.484V46.982a5.348,5.348,0,0,0-8.61,4.085,5.382,5.382,0,0,0-4.727,3.188L49.889,44a5.556,5.556,0,0,0-.566-.466V21.71H25.161V45.871H41.068a5.048,5.048,0,0,0-.133,3.452H25.161v3.452H43.431l3.452,3.452H45.871V66.581H56.226V65.569L59,68.348c-.286-.017-.571-.041-.861-.041a13.684,13.684,0,0,0-6.6,1.726H34.458Zm1.322-3.452V59.677h3.452v3.452Zm0-37.968h3.452v3.452H35.516Zm6.9,6.9v-6.9h3.452V42.419H28.613V25.161h3.452v6.9Zm6.9,27.613h1.011l2.44,2.44v1.011H49.323ZM14.806,9.629a5.184,5.184,0,0,1,5.177-5.177H75.21a5.184,5.184,0,0,1,5.177,5.177V44.387a5.048,5.048,0,0,0-3.452.133V14.806H18.258V78.157c-.217.471-.426.949-.659,1.413a1.474,1.474,0,0,1-2.792-.658Zm13.806,94.919H11.355V101.1H28.613Zm1.438-9.1-.88,2.2H10.913L8.98,92.809a28.255,28.255,0,0,1-1.631-5.826L4.664,70.878a15.874,15.874,0,0,1-.212-2.571,15.533,15.533,0,0,1,4.58-11.057l2.323-2.323V78.913a4.926,4.926,0,0,0,9.331,2.2,54.153,54.153,0,0,0,4.09-11.056l1.294-5.174a2.319,2.319,0,0,1,4.561.385l1.351,17.555q.08,1.077.081,2.161a28.067,28.067,0,0,1-2.014,10.46Zm4.929-4.7a31.548,31.548,0,0,0,.537-5.756q0-1.214-.093-2.425l-.7-9.078h13.24a5.076,5.076,0,0,0-.369,1.805,5.014,5.014,0,0,0,.3,1.646H38.968V87.29H56.226v-6.4a12.056,12.056,0,0,1,4.461,2.3l3.505,2.92a15.521,15.521,0,0,0,7.747,3.445L79.8,90.675l.112.067Z" transform="translate(-1 -1)"/>
    </g>
  </g>
</svg>
