<svg xmlns="http://www.w3.org/2000/svg" width="210.004" height="228.728" viewBox="0 0 210.004 228.728">
  <g id="Grupo_960239" data-name="Grupo 960239" transform="translate(-3.706 -15.148)">
    <path id="Trazado_727056" data-name="Trazado 727056" d="M696.746,293.037c13.6,3.987,26.539,12.592,32.369,25.513,2.939,6.517,3.982,13.861,7.681,19.98,5.927,9.813,17.654,14.869,24.01,24.411,7.764,11.657,5.824,27,3.584,40.82L755.5,458.619c-1.668,10.288-3.936,21.617-12.259,27.887-7.371,5.556-17.4,5.507-26.622,5.219q-54.23-1.693-108.46-3.384c-6.645-.209-13.714-.552-19.148-4.381-8.959-6.315-9.784-19.051-9.74-30.013q.162-41.871.326-83.737c.042-10.647.77-22.8,9.078-29.454,7.368-5.907,19.025-5.8,24.506-13.5,5.8-8.145,2.053-19.384,7.569-27.863,4.6-7.074,14.361-12.462,22.66-13.694,6.834-1.014,13.551,1.252,20.22,2.407C674.682,290.025,685.888,289.858,696.746,293.037Z" transform="translate(-556.376 -260.2)" fill="#d9e2f4"/>
    <g id="Grupo_960238" data-name="Grupo 960238" transform="translate(3.706 15.148)">
      <g id="Grupo_960199" data-name="Grupo 960199" transform="translate(159.989 76.751)">
        <path id="Trazado_727057" data-name="Trazado 727057" d="M596.75,345.272c0,1.517,4.784,2.744,10.666,2.744s10.653-1.227,10.653-2.744v-.027c-.014-9.221-6.849-12.68-7.731-25.288-.014-.3-.027-.608-.041-.923a.165.165,0,0,0-.109-.027h-5.54a.164.164,0,0,0-.109.027c-.014.315-.027.619-.041.923-.882,12.581-7.69,16.053-7.734,25.247C596.763,345.231,596.75,345.245,596.75,345.272Z" transform="translate(-596.75 -319.007)" fill="#b5cfe0"/>
        <path id="Trazado_727058" data-name="Trazado 727058" d="M599.452,319.5a.463.463,0,0,0,.331.455.275.275,0,0,0,.151.041h5.54a.275.275,0,0,0,.151-.041.463.463,0,0,0,.331-.455.473.473,0,0,0-.372-.468.165.165,0,0,0-.109-.027h-5.54a.164.164,0,0,0-.109.027A.473.473,0,0,0,599.452,319.5Z" transform="translate(-592.036 -319.007)" fill="#a3c3d8"/>
      </g>
      <g id="Grupo_960201" data-name="Grupo 960201" transform="translate(145.154 76.751)">
        <g id="Grupo_960200" data-name="Grupo 960200">
          <path id="Trazado_727059" data-name="Trazado 727059" d="M602.167,345.272c0,1.517,4.782,2.744,10.667,2.744s10.653-1.227,10.653-2.744v-.027c-.014-9.221-6.849-12.68-7.731-25.288-.014-.3-.027-.608-.044-.923a.162.162,0,0,0-.11-.027h-5.54a.165.165,0,0,0-.11.027c-.014.315-.027.619-.041.923-.882,12.581-7.69,16.053-7.731,25.247C602.181,345.231,602.167,345.245,602.167,345.272Z" transform="translate(-602.167 -319.007)" fill="#a3c3d8"/>
          <path id="Trazado_727060" data-name="Trazado 727060" d="M602.673,338.8c.715.578,3.954,1.569,9.259,1.569,5.348,0,8.6-1,9.276-1.583-.055-4-1.487-6.835-3.155-10.1a52.865,52.865,0,0,1-2.744-6.077h-6.737a49.421,49.421,0,0,1-2.744,6.063C604.16,331.969,602.714,334.806,602.673,338.8Z" transform="translate(-601.273 -312.741)" fill="#6278a1"/>
          <path id="Trazado_727061" data-name="Trazado 727061" d="M604.869,319.5a.466.466,0,0,0,.331.455.276.276,0,0,0,.151.041h5.54a.292.292,0,0,0,.154-.041.466.466,0,0,0,.331-.455.476.476,0,0,0-.375-.468.162.162,0,0,0-.11-.027h-5.54a.165.165,0,0,0-.11.027A.476.476,0,0,0,604.869,319.5Z" transform="translate(-597.456 -319.007)" fill="#a3c3d8"/>
        </g>
        <path id="Trazado_727062" data-name="Trazado 727062" d="M604.875,323.091c0,.416,1.454.756,3.245.756s3.245-.34,3.245-.756-1.452-.756-3.245-.756S604.875,322.672,604.875,323.091Z" transform="translate(-597.462 -313.221)" fill="#8193b4"/>
      </g>
      <g id="Grupo_960203" data-name="Grupo 960203" transform="translate(178.277 76.751)">
        <g id="Grupo_960202" data-name="Grupo 960202">
          <path id="Trazado_727063" data-name="Trazado 727063" d="M590.072,345.272c0,1.517,4.784,2.744,10.667,2.744s10.653-1.227,10.653-2.744v-.027c-.014-9.221-6.846-12.68-7.731-25.288l-.041-.923a.165.165,0,0,0-.11-.027h-5.54a.165.165,0,0,0-.109.027c-.014.315-.027.619-.041.923-.882,12.581-7.69,16.053-7.734,25.247C590.086,345.231,590.072,345.245,590.072,345.272Z" transform="translate(-590.072 -319.007)" fill="#a3c3d8"/>
          <path id="Trazado_727064" data-name="Trazado 727064" d="M590.578,333.171c.718.578,3.955,1.569,9.275,1.569s8.585-1,9.259-1.583a15.951,15.951,0,0,0-1.254-6.025.221.221,0,0,0-.041-.123c-.414-.646-3.831-1.158-7.98-1.158-4.119,0-7.509.5-7.964,1.145a.176.176,0,0,0-.055.137A16.348,16.348,0,0,0,590.578,333.171Z" transform="translate(-589.179 -307.108)" fill="#f9a806"/>
          <path id="Trazado_727065" data-name="Trazado 727065" d="M592.774,319.5a.463.463,0,0,0,.331.455.276.276,0,0,0,.151.041h5.54a.275.275,0,0,0,.151-.041.463.463,0,0,0,.331-.455.473.473,0,0,0-.372-.468.165.165,0,0,0-.11-.027h-5.54a.165.165,0,0,0-.109.027A.473.473,0,0,0,592.774,319.5Z" transform="translate(-585.358 -319.007)" fill="#a3c3d8"/>
        </g>
        <path id="Trazado_727066" data-name="Trazado 727066" d="M591.036,327.133c0,.7,3.6,1.284,8.018,1.284s8.021-.581,8.021-1.284a.221.221,0,0,0-.041-.123c-.414-.646-3.831-1.158-7.98-1.158-4.119,0-7.509.5-7.964,1.145A.176.176,0,0,0,591.036,327.133Z" transform="translate(-588.396 -307.108)" fill="#f9bd38"/>
      </g>
      <path id="Trazado_727067" data-name="Trazado 727067" d="M620.284,314.27l-4.83,7.422-6.616-4.389,7.22-6.551Z" transform="translate(-472.082 -256.606)" fill="#f9bd38"/>
      <path id="Trazado_727068" data-name="Trazado 727068" d="M618.5,326.495l5.551,1.777a3.477,3.477,0,0,1,2.109,3.24h0a1.1,1.1,0,0,1-1.1,1.1H620.39l-1.421-2.947Z" transform="translate(-504.425 -229.237)" fill="#f9a806"/>
      <path id="Trazado_727069" data-name="Trazado 727069" d="M625.306,326.525l7.062.566v5.468h-7.76l-1.369-4.61Z" transform="translate(-523.601 -229.185)" fill="#f9bd38"/>
      <path id="Trazado_727070" data-name="Trazado 727070" d="M614.025,314.379h0a25.5,25.5,0,0,0-1.134-4.423l-.945-2.648c-.219-.55-.553-.906-1.084-.644h0a.422.422,0,0,0-.233.375l-.025,3.793a7.177,7.177,0,0,1-.972,3.16,10.382,10.382,0,0,0-.967,1.564,9.635,9.635,0,0,0-.4,2.459l4.108-.6A2.816,2.816,0,0,0,614.025,314.379Z" transform="translate(-464.289 -263.868)" fill="#f9a806"/>
      <g id="Grupo_960204" data-name="Grupo 960204" transform="translate(41.834 49.643)">
        <rect id="Rectángulo_340542" data-name="Rectángulo 340542" width="44.536" height="47.616" transform="translate(4.781)" fill="#d86254"/>
        <rect id="Rectángulo_340543" data-name="Rectángulo 340543" width="8.369" height="47.616" rx="1.31" transform="translate(0)" fill="#ce3b29"/>
      </g>
      <path id="Trazado_727071" data-name="Trazado 727071" d="M620.753,308.911s7.435.775,10.891,4.387c10.784,11.261,22.2,33.369,22.2,33.369l-8.484,4.4s-20.257-19.819-23.642-25.321C616.8,317.748,620.753,308.911,620.753,308.911Z" transform="translate(-534.151 -259.808)" fill="#ef8d72"/>
      <path id="Trazado_727072" data-name="Trazado 727072" d="M607.106,354.283a5.181,5.181,0,0,0,1.627,2.536,5.342,5.342,0,0,0,3.585,1.361h67.357a5.465,5.465,0,0,0,5.113-3.609,12.89,12.89,0,0,0,.361-8.295,5.4,5.4,0,0,0-5.165-3.752H612.005a5.4,5.4,0,0,0-5.258,4.064A14.44,14.44,0,0,0,607.106,354.283Z" transform="translate(-530.716 -201.37)" fill="#d86254"/>
      <path id="Trazado_727073" data-name="Trazado 727073" d="M628.695,354.29a5.487,5.487,0,0,0,5.233,3.894h39.44a5.332,5.332,0,0,0,3.56-1.361,5.434,5.434,0,0,0,1.553-2.273,12.786,12.786,0,0,0,.359-8.268,5.318,5.318,0,0,0-2.821-3.229,6.016,6.016,0,0,0-1.816-.5,3.769,3.769,0,0,0-.526-.025H633.618a6.107,6.107,0,0,0-.693.049,4.655,4.655,0,0,0-1.292.334,5.428,5.428,0,0,0-2.6,2.128,4.74,4.74,0,0,0-.668,1.553A14.712,14.712,0,0,0,628.695,354.29Z" transform="translate(-583.595 -201.363)" fill="#ce3b29"/>
      <g id="Grupo_960220" data-name="Grupo 960220" transform="translate(48.796 156.805)">
        <g id="Grupo_960208" data-name="Grupo 960208" transform="translate(36.302)">
          <g id="Grupo_960207" data-name="Grupo 960207" transform="translate(1.733)">
            <g id="Grupo_960206" data-name="Grupo 960206">
              <g id="Grupo_960205" data-name="Grupo 960205">
                <path id="Trazado_727074" data-name="Trazado 727074" d="M636.26,348.239l-.33,61.282h-7.562l.329-60.976Z" transform="translate(-628.368 -348.239)" fill="#898994"/>
              </g>
            </g>
          </g>
          <path id="Trazado_727075" data-name="Trazado 727075" d="M639.3,348.239v8.884a1.092,1.092,0,0,1-1.087,1.1H628.7a1.094,1.094,0,0,1-1.09-1.1v-8.884Z" transform="translate(-627.615 -348.239)" fill="#45464b"/>
        </g>
        <g id="Grupo_960213" data-name="Grupo 960213" transform="translate(0 53.418)">
          <g id="Grupo_960212" data-name="Grupo 960212" transform="translate(1.274 8.867)">
            <g id="Grupo_960211" data-name="Grupo 960211" transform="translate(0)">
              <g id="Grupo_960209" data-name="Grupo 960209" transform="translate(1.501)">
                <path id="Trazado_727076" data-name="Trazado 727076" d="M648.005,375.017c0-2.226-1.369-4.034-3.056-4.034s-3.056,1.807-3.056,4.034,1.369,4.031,3.056,4.031S648.005,377.243,648.005,375.017Z" transform="translate(-641.893 -370.983)" fill="#45464b"/>
              </g>
              <g id="Grupo_960210" data-name="Grupo 960210">
                <path id="Trazado_727077" data-name="Trazado 727077" d="M648.552,375.017c0-2.226-1.367-4.034-3.053-4.034s-3.056,1.807-3.056,4.034,1.367,4.031,3.056,4.031S648.552,377.243,648.552,375.017Z" transform="translate(-642.442 -370.983)" fill="#45464b"/>
              </g>
            </g>
          </g>
          <path id="Trazado_727078" data-name="Trazado 727078" d="M669.283,375.607s-23.579.718-36.154,5.047a1.418,1.418,0,0,1-1.879-1.345h0a4.614,4.614,0,0,1,2.873-4.278c5.814-2.372,19.737-7.287,35.16-7.287Z" transform="translate(-631.25 -367.745)" fill="#45464b"/>
        </g>
        <g id="Grupo_960215" data-name="Grupo 960215" transform="translate(45.599 53.418)">
          <path id="Trazado_727079" data-name="Trazado 727079" d="M624.9,377.657l-.279-.466a8.183,8.183,0,0,0,.279-2.174c0-2.226-.794-4.034-1.772-4.034s-1.772,1.807-1.772,4.034.794,4.034,1.772,4.034h2.029Z" transform="translate(-605.614 -362.116)" fill="#45464b"/>
          <g id="Grupo_960214" data-name="Grupo 960214">
            <path id="Trazado_727080" data-name="Trazado 727080" d="M620.7,375.017c0-2.226.794-4.034,1.772-4.034s1.772,1.807,1.772,4.034-.794,4.034-1.772,4.034S620.7,377.243,620.7,375.017Z" transform="translate(-602.937 -362.116)" fill="#45464b"/>
            <path id="Trazado_727081" data-name="Trazado 727081" d="M620.436,375.61s13.668.715,20.961,5.044c.534.318,1.087-.37,1.087-1.345h0a5.343,5.343,0,0,0-1.665-4.278c-3.371-2.372-11.442-7.287-20.383-7.287Z" transform="translate(-620.436 -367.745)" fill="#45464b"/>
          </g>
        </g>
        <g id="Grupo_960217" data-name="Grupo 960217" transform="translate(15.952 53.418)">
          <g id="Grupo_960216" data-name="Grupo 960216" transform="translate(0.739 8.867)">
            <path id="Trazado_727082" data-name="Trazado 727082" d="M641.2,377.657l-.279-.466a8.186,8.186,0,0,0,.279-2.174c0-2.226-.792-4.034-1.769-4.034s-1.772,1.807-1.772,4.034.792,4.034,1.772,4.034h2.027Z" transform="translate(-637.656 -370.983)" fill="#45464b"/>
            <path id="Trazado_727083" data-name="Trazado 727083" d="M637.009,375.017c0-2.226.794-4.034,1.772-4.034s1.772,1.807,1.772,4.034-.794,4.034-1.772,4.034S637.009,377.243,637.009,375.017Z" transform="translate(-634.982 -370.983)" fill="#45464b"/>
          </g>
          <path id="Trazado_727084" data-name="Trazado 727084" d="M653.312,375.61s-13.671.715-20.961,5.044c-.537.318-1.09-.37-1.09-1.345h0a5.343,5.343,0,0,1,1.665-4.278c3.371-2.372,11.444-7.287,20.386-7.287Z" transform="translate(-631.261 -367.745)" fill="#6c6b79"/>
        </g>
        <g id="Grupo_960219" data-name="Grupo 960219" transform="translate(45.599 53.418)">
          <g id="Grupo_960218" data-name="Grupo 960218" transform="translate(29.146 8.867)">
            <path id="Trazado_727085" data-name="Trazado 727085" d="M615.613,375.017c0-2.226,1.367-4.034,3.053-4.034s3.056,1.807,3.056,4.034-1.367,4.031-3.056,4.031S615.613,377.243,615.613,375.017Z" transform="translate(-615.613 -370.983)" fill="#45464b"/>
            <path id="Trazado_727086" data-name="Trazado 727086" d="M615.064,375.017c0-2.226,1.369-4.034,3.056-4.034s3.056,1.807,3.056,4.034-1.369,4.031-3.056,4.031S615.064,377.243,615.064,375.017Z" transform="translate(-613.563 -370.983)" fill="#45464b"/>
          </g>
          <path id="Trazado_727087" data-name="Trazado 727087" d="M614.6,375.607s23.579.718,36.154,5.047a1.418,1.418,0,0,0,1.879-1.345h0a4.612,4.612,0,0,0-2.875-4.278c-5.814-2.372-19.737-7.287-35.157-7.287Z" transform="translate(-614.599 -367.745)" fill="#6c6b79"/>
        </g>
        <path id="Rectángulo_340544" data-name="Rectángulo 340544" d="M.466,0H11.958a.465.465,0,0,1,.465.465V7.4a.465.465,0,0,1-.465.465H.466A.466.466,0,0,1,0,7.4V.466A.466.466,0,0,1,.466,0Z" transform="translate(35.588 53.419)" fill="#6c6b79"/>
        <path id="Rectángulo_340545" data-name="Rectángulo 340545" d="M.341,0H8.75a.34.34,0,0,1,.34.34V5.753a0,0,0,0,1,0,0H0a0,0,0,0,1,0,0V.341A.341.341,0,0,1,.341,0Z" transform="translate(37.255 47.665)" fill="#45464b"/>
      </g>
      <path id="Trazado_727088" data-name="Trazado 727088" d="M661.4,318.608A9.363,9.363,0,0,1,665.5,321.6a3.319,3.319,0,0,1,.145,3.727c-5.392,8.659-20.328,28.6-29.7,27.856-9.985-.8-23.037-20.476-23.037-20.476l-2.856-23.669s12.474-1.312,27.331,29.6c5.3-3.6,16.566-15.163,20.479-19.238A3.249,3.249,0,0,1,661.4,318.608Z" transform="translate(-521.245 -259.597)" fill="#a3c3d8"/>
      <path id="Trazado_727089" data-name="Trazado 727089" d="M609.428,355.088h55.979l-3.3-11.02s-20.178-6.835-48.048-8.772Z" transform="translate(-518.817 -213.935)" fill="#6278a1"/>
      <g id="Grupo_960221" data-name="Grupo 960221" transform="translate(51.66 26.409)">
        <path id="Trazado_727090" data-name="Trazado 727090" d="M631.475,326.068l18.611-.241c-4.248-10.122-2.928-25.2-2.928-25.2l-12,1.6S636.8,315.949,631.475,326.068Z" transform="translate(-615.533 -300.624)" fill="#ef8d72"/>
        <path id="Trazado_727091" data-name="Trazado 727091" d="M636.853,390.542a54.5,54.5,0,0,0,23.831-1.027c9.251-2.415,13.534-6.175,13.534-6.175-8.917-23.352-3.182-31.614-.745-36.921a35.651,35.651,0,0,0,1.983-5.091V341.3c1.386-4.8,1.027-9.465-2.057-16.828-1.1-2.629-2.533-5.567-4.349-9.01-.142-.288-.309-.55-.455-.838a10.381,10.381,0,0,0-2.7-3.106c-.238-.192-.479-.383-.718-.55a12.866,12.866,0,0,0-4.636-2.054l-1.268.047h-.025l-2.533.12-9.059.405-2.675.118s-1.005.074-2.558.216c-.216.025-.454.049-.717.071h-.049c-1.1.121-2.413.288-3.845.5-.934.142-7.939,2.6-9.4,4.757a7.3,7.3,0,0,0-.572.906,11.256,11.256,0,0,0-.742,1.744,10.211,10.211,0,0,0,0,6.1c.334,1.052.668,2.174,1.027,3.371.025.1.074.214.1.31.12.405.241.838.359,1.268.216.693.405,1.41.622,2.15,1.84,6.718,2.771,11.521,2.917,16.4.047,1.315.025,2.629-.049,3.99a87.792,87.792,0,0,1-1.575,11.546c-.025.142-3.681,13.838-4.615,17.877-.025.145-.046.266-.071.383C624.617,386.837,628.728,388.965,636.853,390.542Z" transform="translate(-625.608 -286.206)" fill="#c9dbe9"/>
      </g>
      <path id="Trazado_727092" data-name="Trazado 727092" d="M664.129,318.978c.717,4.675-2.322,11.28-4.439,13.893-1.342.7-5.718.778-5.718.778-11.751-2.462-14.254-6.97-14.254-6.97L638.57,320.3s-7.432-3.081-9.267-8.377c-5.721-19.624,17.286-23.064,24.959-19.466,8.481,4.261,7.849,16.026,7.632,18.524a7.616,7.616,0,0,0,.964,3.8,17.275,17.275,0,0,1,1.147,3.5C664.052,318.51,664.09,318.74,664.129,318.978Z" transform="translate(-569.599 -290.6)" fill="#fba284"/>
      <path id="Trazado_727093" data-name="Trazado 727093" d="M647.706,315.26l.548-.874-13.115-8.227a2.9,2.9,0,0,1,2.856-5.031l13.131,6.707.471-.92-13.134-6.707a3.928,3.928,0,0,0-3.872,6.827Z" transform="translate(-568.865 -275.693)" fill="#a3c3d8"/>
      <path id="Trazado_727094" data-name="Trazado 727094" d="M637.156,301.042s2.185,11.179,8.325,15.24c-2.12-3.924-4.371-12.121-1.544-17.738C641.559,297.291,637.156,301.042,637.156,301.042Z" transform="translate(-574.826 -278.276)" fill="#362f41"/>
      <path id="Trazado_727095" data-name="Trazado 727095" d="M654.24,292.367a21.922,21.922,0,0,0-13.6-.616c-13.767,3.248-12.805,11.776-12.805,11.776l1.766-3.116c-4.152,14.262,3.911,23.16,6.6,24.789-1.084-1.419-2.558-9.727-.874-12.937-.282,4.456.539,10.661,2.908,14.3a44.6,44.6,0,0,0,7.024,5.822c-7.024-5.822-5.778-15.714-4.866-18.115-.085,14.446,6.548,19.392,9.308,20.646-8.424-8.451-8.517-25.581-.148-27.7,7.725-1.955,6.572-6.548,6.572-6.548s6.3,2.347,8.062,16.664a45.667,45.667,0,0,0-1.624-15.218c1.356,2.418,3.357,12.657,3.259,19.055C666.352,317.053,668.94,297.291,654.24,292.367Z" transform="translate(-570.119 -290.981)" fill="#433f4d"/>
      <g id="Grupo_960222" data-name="Grupo 960222" transform="translate(81.998 36.268)">
        <path id="Trazado_727096" data-name="Trazado 727096" d="M630.589,304.282a4.443,4.443,0,0,0,2.254.23,2.22,2.22,0,0,1,1.78.266,3.156,3.156,0,0,1,.9-.274c.271.016.808.285,1.438.414a4.6,4.6,0,0,1-3.166.871A6.709,6.709,0,0,1,630.589,304.282Z" transform="translate(-630.323 -304.123)" fill="#ef8d72"/>
        <path id="Trazado_727097" data-name="Trazado 727097" d="M630.5,304.224a8.241,8.241,0,0,0,.8.392,7.781,7.781,0,0,0,.833.3,8.533,8.533,0,0,0,1.734.326,10.563,10.563,0,0,0,1.766,0l.441-.044c.074-.005.148-.016.222-.027l.219-.033.219-.03c.074-.011.145-.027.219-.041.145-.027.29-.055.438-.079a10.862,10.862,0,0,1-1.747.356,9.065,9.065,0,0,1-1.788.027,7.663,7.663,0,0,1-1.753-.356,7.044,7.044,0,0,1-.83-.34A6.781,6.781,0,0,1,630.5,304.224Z" transform="translate(-630.499 -304.224)" fill="#ef8d72"/>
      </g>
      <path id="Trazado_727098" data-name="Trazado 727098" d="M648.433,314.981c6.151-2.585-1.005-6.047-1.005-6.047h-.011l-14.282.649s-.988.063-2.558.225C629.586,312.48,642.288,317.566,648.433,314.981Z" transform="translate(-562.108 -259.768)" fill="#ef8d72"/>
      <path id="Trazado_727099" data-name="Trazado 727099" d="M625.308,380.966c.071.025.142.025.214.047,6.43,1.484,22.708,6.863,34.8,8.7,5.329.789,9.848.931,12.381-.241,4.2-1.922,4.426-3.713,3.607-5.02a25.874,25.874,0,0,1-3.987-9.462c-.471-2.9-1.076-6.8-1.818-11.954,0,0-1.72-6.143,3.563-18.069a15.236,15.236,0,0,0,1.027-3.442V341.5c.885-4.949-.071-11.138-2.057-16.828a41.483,41.483,0,0,0-4.349-9.01,23.7,23.7,0,0,0-3.155-3.944,10.552,10.552,0,0,0-4.015-2.629,2.55,2.55,0,0,0-2.607.071,14.484,14.484,0,0,1,2.558,1.673A20.526,20.526,0,0,1,669,325.346a8.434,8.434,0,0,1-4.11,8.1l-.025.022a8.6,8.6,0,0,1-3.99,1.172h-.192a13.962,13.962,0,0,1-4.015-.455,14.215,14.215,0,0,1-8.437-5.83A47.293,47.293,0,0,1,645,322.93a.393.393,0,0,1-.046-.071.067.067,0,0,0-.025-.046,28.739,28.739,0,0,1-3.464-12.718h-.17a10.792,10.792,0,0,0-3.845.5c.189,1.457.477,3.01.81,4.636.071.334.145.668.216,1,1.1,5.211,2.58,11.044,3.226,16.278.047.43.1.863.142,1.293a29.55,29.55,0,0,1,.192,3.514,20.943,20.943,0,0,1-.214,3.081c-.025.12-.049.241-.074.359a6.954,6.954,0,0,1-.214,1.03c-.071.285-.167.572-.263.86-1.2,3.442-4.015,5.474-9.514,4.949a3.445,3.445,0,0,1-.477-.049,39.246,39.246,0,0,0-.5,3.993C630.375,356.68,629.7,365.526,625.308,380.966Z" transform="translate(-573.587 -259.997)" fill="#6278a1"/>
      <g id="Grupo_960223" data-name="Grupo 960223" transform="translate(132.683 130.126)">
        <path id="Trazado_727100" data-name="Trazado 727100" d="M605.914,359.055c0-15.465,5.529-20.558,10.614-20.558,1.512,0,14.421,4.551,12.77,18.272-4.357,36.179-4.209,37.9-4.938,67.086h-11.7C610.764,400.508,605.914,382.881,605.914,359.055Z" transform="translate(-605.914 -338.497)" fill="#6278a1"/>
        <path id="Trazado_727101" data-name="Trazado 727101" d="M616.435,369.666c2.1,2.421,9.391,4.256,11.776,5.409a4.463,4.463,0,0,1,2.374,5.124h0a1.614,1.614,0,0,1-1.561,1.213H603.106a13.962,13.962,0,0,1,.674-9.623l.956-2.122Z" transform="translate(-597.988 -284.308)" fill="#3b4a62"/>
      </g>
      <g id="Grupo_960224" data-name="Grupo 960224" transform="translate(47.562 119.949)">
        <path id="Trazado_727102" data-name="Trazado 727102" d="M620.753,360.909c0-15.465,5.529-23.478,10.612-23.478a7.711,7.711,0,0,1,4.239,1.312s10.842,3.886,9.557,14.728c-4.278,36.19-5.236,43.05-5.962,72.237H627.5C625.6,402.362,620.753,384.734,620.753,360.909Z" transform="translate(-577.252 -330.174)" fill="#6278a1"/>
        <path id="Trazado_727103" data-name="Trazado 727103" d="M624.911,335.652a73.79,73.79,0,0,1,14.577-.668c16.494,1.043,35.933,6.792,37.017,7.115a8.1,8.1,0,0,1,2.6,1.1s10.842,3.883,9.557,14.728c-4.278,36.19-5.236,43.05-5.962,72.237H671c-1.9-23.346-6.748-40.974-6.748-64.8a51.72,51.72,0,0,1,.827-9.522H623.213a6.1,6.1,0,0,0-.693.049,4.655,4.655,0,0,0-1.293.334A30.61,30.61,0,0,1,624.911,335.652Z" transform="translate(-620.752 -334.633)" fill="#6278a1"/>
        <path id="Trazado_727104" data-name="Trazado 727104" d="M668.773,347.57a.29.29,0,0,0,.208-.085.3.3,0,0,0,.005-.422,17.69,17.69,0,0,0-5.959-3.965,8.32,8.32,0,0,0-2.692-1.142c-.813-.244-20.544-6.077-37.066-7.123-.315-.022-.63-.038-.942-.052h-.014a.3.3,0,0,0-.3.285.3.3,0,0,0,.285.312c.309.014.619.03.934.049,16.451,1.043,36.119,6.857,36.948,7.1A7.873,7.873,0,0,1,662.7,343.6a17.483,17.483,0,0,1,5.858,3.88A.3.3,0,0,0,668.773,347.57Z" transform="translate(-604.514 -334.781)" fill="#2b3954" opacity="0.25"/>
        <path id="Trazado_727105" data-name="Trazado 727105" d="M633.148,369.666a24.5,24.5,0,0,0,7.63,5.409,4.46,4.46,0,0,1,2.374,5.124h0a1.611,1.611,0,0,1-1.561,1.213H619.816a13.978,13.978,0,0,1,.676-9.623l.956-2.122Z" transform="translate(-571.2 -274.132)" fill="#3b4a62"/>
      </g>
      <path id="Trazado_727106" data-name="Trazado 727106" d="M607.295,316.936c.92-1.38,2.281-6.438,2.281-6.438a1.594,1.594,0,0,0-.016-.906l-1.284-4.056a.185.185,0,0,0-.241-.12h0a1.082,1.082,0,0,0-.687,1.128l.372,3.483-1.9,5.011Z" transform="translate(-453.161 -265.905)" fill="#f9a806"/>
      <path id="Trazado_727107" data-name="Trazado 727107" d="M611.531,315.812l-.917-5.83a1.479,1.479,0,0,0-.4-.783L607.3,306.26a.186.186,0,0,0-.271.008h0a1.078,1.078,0,0,0-.145,1.309l1.835,2.873.416,5.277Z" transform="translate(-457.542 -264.512)" fill="#f9a806"/>
      <path id="Trazado_727108" data-name="Trazado 727108" d="M608.612,316.544l1.252-5.987a1.623,1.623,0,0,0-.068-.9l-1.52-3.957a.181.181,0,0,0-.246-.1h0a1.088,1.088,0,0,0-.624,1.164l.572,3.448-1.616,5.11Z" transform="translate(-454.907 -265.601)" fill="#f9a806"/>
      <path id="Trazado_727109" data-name="Trazado 727109" d="M631.543,332.157a8.434,8.434,0,0,0,4.11-8.1,20.526,20.526,0,0,0-7.528-14.509l-.025.1S640.84,323.791,631.543,332.157Z" transform="translate(-540.242 -258.706)" fill="#a3c3d8"/>
      <g id="Grupo_960228" data-name="Grupo 960228" transform="translate(7.235 70.65)">
        <path id="Trazado_727110" data-name="Trazado 727110" d="M649.754,323.831a1.973,1.973,0,1,0,1.972-1.972A1.973,1.973,0,0,0,649.754,323.831Z" transform="translate(-624.78 -307.947)" fill="#819ac1"/>
        <path id="Trazado_727111" data-name="Trazado 727111" d="M651.9,323.674a1.973,1.973,0,1,0,1.972-1.974A1.971,1.971,0,0,0,651.9,323.674Z" transform="translate(-632.799 -308.223)" fill="#618d77"/>
        <path id="Trazado_727112" data-name="Trazado 727112" d="M653.34,323.919a1.973,1.973,0,1,0,1.972-1.974A1.971,1.971,0,0,0,653.34,323.919Z" transform="translate(-638.187 -307.797)" fill="#819ac1"/>
        <path id="Trazado_727113" data-name="Trazado 727113" d="M654.8,323.781a1.973,1.973,0,1,0,1.975-1.974A1.973,1.973,0,0,0,654.8,323.781Z" transform="translate(-643.641 -308.037)" fill="#c9dbe9"/>
        <rect id="Rectángulo_340546" data-name="Rectángulo 340546" width="5.473" height="1.413" transform="translate(18.167 0.944)" fill="#819ac1"/>
        <rect id="Rectángulo_340547" data-name="Rectángulo 340547" width="5.473" height="1.651" transform="translate(13.103 0.341)" fill="#acdac2"/>
        <rect id="Rectángulo_340548" data-name="Rectángulo 340548" width="5.473" height="1.651" transform="translate(8.767 0.825)" fill="#d3dceb"/>
        <rect id="Rectángulo_340549" data-name="Rectángulo 340549" width="4.319" height="2.766" transform="translate(5.348)" fill="#d3dceb"/>
        <rect id="Rectángulo_340550" data-name="Rectángulo 340550" width="1.893" height="29.903" transform="translate(31.16 2.766)" fill="#819ac1"/>
        <rect id="Rectángulo_340551" data-name="Rectángulo 340551" width="1.892" height="29.903" transform="translate(1.199 2.766)" fill="#819ac1"/>
        <rect id="Rectángulo_340552" data-name="Rectángulo 340552" width="1.893" height="29.903" transform="translate(38.294 2.766)" fill="#dce3ef"/>
        <rect id="Rectángulo_340553" data-name="Rectángulo 340553" width="1.892" height="29.903" transform="translate(8.332 2.766)" fill="#dce3ef"/>
        <path id="Trazado_727114" data-name="Trazado 727114" d="M648.746,323.831a1.973,1.973,0,1,0,1.972-1.972A1.973,1.973,0,0,0,648.746,323.831Z" transform="translate(-621.012 -307.947)" fill="#618d77"/>
        <g id="Grupo_960225" data-name="Grupo 960225" transform="translate(0 28.629)">
          <rect id="Rectángulo_340554" data-name="Rectángulo 340554" width="31.062" height="4.095" fill="#819ac1"/>
          <rect id="Rectángulo_340555" data-name="Rectángulo 340555" width="31.062" height="4.095" transform="translate(10.96)" fill="#d3dceb"/>
        </g>
        <g id="Grupo_960226" data-name="Grupo 960226" transform="translate(0 15.112)">
          <rect id="Rectángulo_340556" data-name="Rectángulo 340556" width="31.062" height="4.095" fill="#819ac1"/>
          <rect id="Rectángulo_340557" data-name="Rectángulo 340557" width="31.062" height="4.095" transform="translate(10.96)" fill="#d3dceb"/>
        </g>
        <g id="Grupo_960227" data-name="Grupo 960227" transform="translate(0 1.651)">
          <rect id="Rectángulo_340558" data-name="Rectángulo 340558" width="31.062" height="4.095" fill="#819ac1"/>
          <rect id="Rectángulo_340559" data-name="Rectángulo 340559" width="31.062" height="4.095" transform="translate(10.96)" fill="#d3dceb"/>
        </g>
        <rect id="Rectángulo_340560" data-name="Rectángulo 340560" width="20.903" height="2.551" transform="translate(16.039 2.423)" fill="#fff"/>
        <rect id="Rectángulo_340561" data-name="Rectángulo 340561" width="20.903" height="2.55" transform="translate(16.039 15.885)" fill="#fff"/>
        <rect id="Rectángulo_340562" data-name="Rectángulo 340562" width="20.903" height="2.551" transform="translate(16.039 29.346)" fill="#fff"/>
        <rect id="Rectángulo_340563" data-name="Rectángulo 340563" width="5.472" height="1.413" transform="translate(25.311 0.238)" fill="#d3dceb"/>
        <rect id="Rectángulo_340564" data-name="Rectángulo 340564" width="5.473" height="1.413" transform="translate(20.903 0.238)" fill="#acdac2"/>
      </g>
      <g id="Grupo_960233" data-name="Grupo 960233" transform="translate(0 103.373)">
        <path id="Trazado_727115" data-name="Trazado 727115" d="M586.272,328.728l.837,6.669.238,1.984H795.2l.239-1.984.837-6.669Z" transform="translate(-586.272 -328.728)" fill="#d3dceb"/>
        <rect id="Rectángulo_340565" data-name="Rectángulo 340565" width="7.318" height="116.696" transform="translate(183.222 8.659)" fill="#a0acc4"/>
        <g id="Grupo_960232" data-name="Grupo 960232" transform="translate(41.824 8.659)">
          <g id="Grupo_960231" data-name="Grupo 960231" transform="translate(0)">
            <g id="Grupo_960229" data-name="Grupo 960229" transform="translate(119.037)">
              <rect id="Rectángulo_340566" data-name="Rectángulo 340566" width="7.318" height="116.696" fill="#819ac1"/>
            </g>
            <g id="Grupo_960230" data-name="Grupo 960230">
              <rect id="Rectángulo_340567" data-name="Rectángulo 340567" width="7.318" height="116.696" fill="#819ac1"/>
            </g>
          </g>
        </g>
        <rect id="Rectángulo_340568" data-name="Rectángulo 340568" width="7.318" height="116.696" transform="translate(12.887 8.659)" fill="#a0acc4"/>
        <rect id="Rectángulo_340569" data-name="Rectángulo 340569" width="163.017" height="7.729" transform="translate(20.205 41.621)" fill="#a0acc4"/>
        <rect id="Rectángulo_340570" data-name="Rectángulo 340570" width="7.318" height="3.255" transform="translate(183.222 8.659)" fill="#819ac1"/>
        <rect id="Rectángulo_340571" data-name="Rectángulo 340571" width="7.318" height="3.255" transform="translate(12.887 8.659)" fill="#819ac1"/>
        <path id="Trazado_727116" data-name="Trazado 727116" d="M586.577,331.163l.238,1.984H794.669l.239-1.984Z" transform="translate(-585.74 -324.495)" fill="#a0acc4"/>
      </g>
      <path id="Trazado_727117" data-name="Trazado 727117" d="M640.137,314.977a6.073,6.073,0,0,1,11.343-.413,13.293,13.293,0,0,1,.969,4.009c1.413,16.4-1.854,34.845-1.854,34.845h-9.174s-2.706-26.145-2.265-33.6A17.722,17.722,0,0,1,640.137,314.977Z" transform="translate(-587.496 -256.428)" fill="#fba284"/>
      <path id="Trazado_727118" data-name="Trazado 727118" d="M633.255,310.62c-7.21-.285-11.6,11.68-3.01,49.6h45.923a6.181,6.181,0,0,0,.082-6.115c-21.432-2.366-23.193-4.321-36.083-4.7C641.75,338.589,642.719,310.992,633.255,310.62Z" transform="translate(-574.455 -256.845)" fill="#dfe9f2"/>
      <path id="Trazado_727119" data-name="Trazado 727119" d="M648.165,348.655a.337.337,0,0,0,.334-.3c.969-7.66,2.229-29.029-3.519-35.815a5.284,5.284,0,0,0-3.894-2.046,5.818,5.818,0,0,0-2.4.394.339.339,0,0,0,.249.63,5.018,5.018,0,0,1,2.131-.348,4.64,4.64,0,0,1,3.4,1.807c4.965,5.861,4.7,24.756,3.366,35.294a.342.342,0,0,0,.293.378Z" transform="translate(-582.275 -257.061)" fill="#97a4af"/>
      <path id="Trazado_727120" data-name="Trazado 727120" d="M620.224,327.216s3.117-1.123,5.31-.646a4.157,4.157,0,0,1,.523.153,3.922,3.922,0,0,1,2.4,4.091l-.17,1.87h-8.068Z" transform="translate(-511.457 -229.312)" fill="#f9bd38"/>
      <path id="Trazado_727121" data-name="Trazado 727121" d="M638.446,301.173c-2.818-.613-8.777,3.648-9.618,7.3a6.991,6.991,0,0,0,2.393,7.134,12.893,12.893,0,0,0,10.111.362C643.176,314.121,649.871,303.656,638.446,301.173Z" transform="translate(-550.96 -273.364)" fill="#a3c3d8"/>
      <path id="Trazado_727122" data-name="Trazado 727122" d="M628.945,301.728l.011.266a5.756,5.756,0,0,0,6.671,5.466l1.643-.266a1.806,1.806,0,0,0,1.383-1.147,2.98,2.98,0,0,1,1.668-1.931c.586-.159,1.093.312,1.457.748a3.156,3.156,0,0,0,2.949,1l1.356-.23a2.437,2.437,0,0,0,2.007-2.771l-.63-4.121a2.538,2.538,0,0,0-2.829-2.139l-12.685,1.6A3.43,3.43,0,0,0,628.945,301.728Z" transform="translate(-554.971 -281.248)" fill="#dfe9f2"/>
      <g id="Grupo_960235" data-name="Grupo 960235" transform="translate(75.486 20.444)">
        <path id="Trazado_727123" data-name="Trazado 727123" d="M640.356,300.113a5.5,5.5,0,0,1-2.407,1.309,17.187,17.187,0,0,1-2.276.542,17.014,17.014,0,0,1-1.69.211c-1.227-.35-1.72-2.254-1.72-2.254h0c.666-.222,1.923-.63,3.111-.948a17.091,17.091,0,0,1,1.788-.4c.129-.019.249-.033.356-.041A4.889,4.889,0,0,1,640.356,300.113Z" transform="translate(-631.787 -298.29)" fill="#dfe9f2"/>
        <path id="Trazado_727124" data-name="Trazado 727124" d="M636.115,300.167A2.629,2.629,0,0,1,636,301.4a17.187,17.187,0,0,1-2.276.542,2.5,2.5,0,0,1-.608-1.361,2.446,2.446,0,0,1,.31-1.629,17.087,17.087,0,0,1,1.788-.4A2.351,2.351,0,0,1,636.115,300.167Z" transform="translate(-629.838 -298.263)" fill="#a3c3d8"/>
        <path id="Trazado_727125" data-name="Trazado 727125" d="M632.2,300.24c.447-.222.906-.416,1.369-.6s.931-.348,1.4-.507.953-.3,1.438-.419a9.183,9.183,0,0,1,1.5-.266l.03,0,.022,0a4.082,4.082,0,0,1,.906.255,4.429,4.429,0,0,1,.813.449,4.694,4.694,0,0,1,.7.594,3.9,3.9,0,0,1,.556.718,7.225,7.225,0,0,0-.69-.559,6.116,6.116,0,0,0-.742-.457,4.771,4.771,0,0,0-.783-.334,4.1,4.1,0,0,0-.819-.181l.049,0a12.915,12.915,0,0,0-1.421.266c-.477.112-.959.225-1.435.348C634.138,299.788,633.18,300.037,632.2,300.24Z" transform="translate(-632.202 -298.446)" fill="#a3c3d8"/>
        <g id="Grupo_960234" data-name="Grupo 960234" transform="translate(2.702 1.191)">
          <path id="Trazado_727126" data-name="Trazado 727126" d="M635.211,299.442a.639.639,0,1,1-.72-.556A.647.647,0,0,1,635.211,299.442Z" transform="translate(-633.939 -298.881)" fill="#dfe9f2"/>
        </g>
      </g>
      <path id="Trazado_727127" data-name="Trazado 727127" d="M641.518,298.607c-.205-.038-.405-.085-.6-.131s-.394-.1-.589-.151l-.583-.156c-.189-.049-.381-.1-.562-.14l.1.016-.2.025c-.033,0-.066.005-.1.011l-.1.017-.211.036c-.068.011-.142.03-.213.041l-.214.041-.214.049c-.145.027-.288.057-.433.093-.575.126-1.156.263-1.736.4s-1.167.26-1.755.383c-.145.03-.293.063-.441.09s-.293.06-.441.093l-.222.047-.112.022-.11.027-.222.049c-.074.022-.148.041-.224.063.058-.055.115-.107.175-.159s.123-.093.189-.14c.126-.093.26-.17.392-.252s.271-.151.408-.225.277-.137.414-.2a14.444,14.444,0,0,1,1.717-.654,15.216,15.216,0,0,1,1.788-.446c.151-.027.3-.049.457-.074.076-.011.153-.019.233-.03l.233-.022c.079-.008.156-.016.236-.019l.241-.008.12-.005c.041,0,.085.005.126.005l.249.014.066,0,.033.014.148.063.145.068c.093.044.189.09.279.14q.271.144.534.3c.175.107.348.216.518.334S641.359,298.476,641.518,298.607Z" transform="translate(-557.625 -280.006)" fill="#a3c3d8"/>
      <g id="Grupo_960236" data-name="Grupo 960236" transform="translate(86.435 19.675)">
        <path id="Trazado_727128" data-name="Trazado 727128" d="M634.831,298.314a2.568,2.568,0,0,1-.562,1.928,1.584,1.584,0,0,1-.624.356,6.816,6.816,0,0,1-1.312.085c-1.268.008-2.917-.077-2.917-.077a3.765,3.765,0,0,1,.512-1.1,2.782,2.782,0,0,1,1.616-1.139c.118-.014.238-.027.359-.038a15.226,15.226,0,0,1,2.2-.055A7.2,7.2,0,0,1,634.831,298.314Z" transform="translate(-629.417 -298.007)" fill="#dfe9f2"/>
        <path id="Trazado_727129" data-name="Trazado 727129" d="M632.161,299.105a2.483,2.483,0,0,1-.1,1.136,1.584,1.584,0,0,1-.624.356,6.815,6.815,0,0,1-1.312.085,2.352,2.352,0,0,1-.523-1.23,2.45,2.45,0,0,1,.093-1.125,15.226,15.226,0,0,1,2.2-.055A2.535,2.535,0,0,1,632.161,299.105Z" transform="translate(-627.21 -298.007)" fill="#a3c3d8"/>
        <path id="Trazado_727130" data-name="Trazado 727130" d="M629.205,300.246a4.911,4.911,0,0,1,.315-.778,2.249,2.249,0,0,1,.55-.685,2.327,2.327,0,0,1,.786-.433,2.769,2.769,0,0,1,.441-.1c.137-.016.276-.033.416-.047a8.534,8.534,0,0,1,1.673,0,8.137,8.137,0,0,1,1.638.323c-.559.044-1.106.049-1.648.074s-1.076.052-1.616.1l-.4.041a2.283,2.283,0,0,0-.367.063,2.354,2.354,0,0,0-.685.29,2.515,2.515,0,0,0-.581.5C629.55,299.811,629.383,300.03,629.205,300.246Z" transform="translate(-629.03 -298.165)" fill="#a3c3d8"/>
        <path id="Trazado_727131" data-name="Trazado 727131" d="M631.378,298.885a.542.542,0,1,1-.611-.463A.543.543,0,0,1,631.378,298.885Z" transform="translate(-628.385 -297.727)" fill="#dfe9f2"/>
      </g>
      <path id="Trazado_727132" data-name="Trazado 727132" d="M629.453,298.556a7.052,7.052,0,0,1,.5-.715,2.412,2.412,0,0,1,1.69-.953c.32-.03.633-.055.805-.055a7.093,7.093,0,0,1,2.128.723c-.23.019-.452.033-.674.041s-2.859.3-3.013.37l-.465.192q-.234.1-.477.2Z" transform="translate(-542.827 -280.806)" fill="#a3c3d8"/>
      <path id="Trazado_727133" data-name="Trazado 727133" d="M645.608,297.233a2.58,2.58,0,0,0-.32.022l-12.685,1.6a3.43,3.43,0,0,0-3,3.53l.011.266a5.757,5.757,0,0,0,5.74,5.54,6,6,0,0,0,.931-.074l1.643-.266a1.806,1.806,0,0,0,1.383-1.147,2.98,2.98,0,0,1,1.668-1.931.881.881,0,0,1,.235-.03,1.78,1.78,0,0,1,1.221.778,3.058,3.058,0,0,0,2.366,1.043,3.793,3.793,0,0,0,.583-.047l1.356-.23a2.437,2.437,0,0,0,2.007-2.771l-.627-4.121a2.544,2.544,0,0,0-2.511-2.161Zm0-1.032h0a3.6,3.6,0,0,1,3.533,3.037l.627,4.121a3.484,3.484,0,0,1-2.856,3.946l-1.355.23a4.661,4.661,0,0,1-.756.063,4.092,4.092,0,0,1-3.16-1.416c-.3-.367-.449-.408-.455-.411a2.339,2.339,0,0,0-.912,1.3,2.849,2.849,0,0,1-2.183,1.794l-1.643.266a6.7,6.7,0,0,1-1.1.09,6.764,6.764,0,0,1-6.772-6.537l-.011-.263a4.442,4.442,0,0,1,3.9-4.6l12.688-1.6a3.574,3.574,0,0,1,.449-.027Z" transform="translate(-555.627 -281.905)" fill="#a3c3d8"/>
      <g id="Grupo_960237" data-name="Grupo 960237" transform="translate(140.05 16.46)">
        <path id="Trazado_727134" data-name="Trazado 727134" d="M604.031,323.455c0,.937,1.8,2.2,4.56,3.045a21.321,21.321,0,0,0,6.107.882c5.882,0,10.653-2.413,10.653-3.927v-.03c0-12.058-6.849-12.677-7.731-25.288-.014-.3-.027-.605-.041-.923a.172.172,0,0,0-.112-.027h-5.54a.165.165,0,0,0-.11.027c-.014.318-.027.619-.041.923-.882,12.584-7.731,14.416-7.731,25.247C604.045,323.411,604.031,323.425,604.031,323.455Z" transform="translate(-604.031 -296.65)" fill="#a3c3d8"/>
        <path id="Trazado_727135" data-name="Trazado 727135" d="M604.535,316.712c.594.841,4.272,2.659,9.275,2.659,5.031,0,8.736-1.846,9.273-2.673-.027-5.745-1.624-8.585-3.473-11.866-.564-1.005-1.156-2.065-1.723-3.237a.1.1,0,0,0-.027-.068c-.246-.3-1.928-.526-3.982-.526-2.081,0-3.8.236-4.009.539a.071.071,0,0,0-.027.055c-.622,1.419-1.3,2.673-1.944,3.872C606.093,308.8,604.549,311.684,604.535,316.712Z" transform="translate(-603.144 -290.019)" fill="#8a9f6a"/>
        <path id="Trazado_727136" data-name="Trazado 727136" d="M606.608,298.16c0,.3.249.553.649.731a7.057,7.057,0,0,0,2.495.441c.164.014.315.014.468.014,1.654,0,3.6-.318,3.6-1.186s-1.942-1.169-3.6-1.169S606.608,297.292,606.608,298.16Z" transform="translate(-599.553 -296.991)" fill="#b5cfe0"/>
        <ellipse id="Elipse_5779" data-name="Elipse 5779" cx="2.915" cy="0.723" rx="2.915" ry="0.723" transform="translate(7.746 0.167)" fill="#a3c3d8"/>
        <path id="Trazado_727137" data-name="Trazado 727137" d="M606.432,301.6c0,.315,1.818.578,4.037.578s4.009-.263,4.009-.578a.105.105,0,0,0-.027-.068c-.246-.3-1.928-.526-3.982-.526-2.081,0-3.8.236-4.009.539A.071.071,0,0,0,606.432,301.6Z" transform="translate(-599.734 -290.019)" fill="#a1b288"/>
        <path id="Trazado_727138" data-name="Trazado 727138" d="M606.9,306.181a.934.934,0,1,0,.934-.934A.935.935,0,0,0,606.9,306.181Z" transform="translate(-595.301 -282.638)" fill="#6e893f"/>
        <path id="Trazado_727139" data-name="Trazado 727139" d="M609.148,304.55a1.188,1.188,0,1,0,1.189-1.191A1.188,1.188,0,0,0,609.148,304.55Z" transform="translate(-604.219 -285.92)" fill="#6e893f"/>
        <path id="Trazado_727140" data-name="Trazado 727140" d="M606.668,303.782a.47.47,0,1,0,.471-.468A.469.469,0,0,0,606.668,303.782Z" transform="translate(-593.509 -285.998)" fill="#6e893f"/>
        <ellipse id="Elipse_5780" data-name="Elipse 5780" cx="0.423" cy="0.423" rx="0.423" ry="0.423" transform="translate(4.506 25.686)" fill="#6e893f"/>
        <path id="Trazado_727141" data-name="Trazado 727141" d="M605.281,306.7a.367.367,0,1,0,.367-.367A.367.367,0,0,0,605.281,306.7Z" transform="translate(-588.119 -280.756)" fill="#6e893f"/>
        <path id="Trazado_727142" data-name="Trazado 727142" d="M610.016,306a.942.942,0,1,0,.942-.942A.942.942,0,0,0,610.016,306Z" transform="translate(-606.971 -282.961)" fill="#6e893f"/>
        <path id="Trazado_727143" data-name="Trazado 727143" d="M607.874,302.8a.372.372,0,1,0,.372-.372A.373.373,0,0,0,607.874,302.8Z" transform="translate(-597.823 -287.537)" fill="#6e893f"/>
        <path id="Trazado_727144" data-name="Trazado 727144" d="M608.088,322.589c0,.937,1.8,2.2,4.56,3.045-.315-3.722-.329-10.089,2.495-14.21,2.936-4.3,3.226-10.171,3.144-13.3a7.056,7.056,0,0,1-2.495-.441c-.991,12.211-7.69,14.125-7.69,24.833C608.1,322.545,608.088,322.559,608.088,322.589Z" transform="translate(-608.088 -295.784)" fill="#fff" opacity="0.15"/>
      </g>
      <path id="Trazado_727145" data-name="Trazado 727145" d="M610.562,323.237a44.187,44.187,0,0,0,4.9-5.116,7.966,7.966,0,0,0,1.925-4.929c.049-1.523.008-2.8-.027-3.524a1.685,1.685,0,0,0-.441-1.065l-1.8-1.939-1.413-1.03a.22.22,0,0,0-.3.047.921.921,0,0,0,.071,1.265l.734.646,1.336,2.207-1.01,3.1a2.447,2.447,0,0,1-1.879,1.8c-2.561.49-3.155.764-4.026,1.816a25.125,25.125,0,0,0-2.306,3.207Z" transform="translate(-462.36 -265.573)" fill="#f9bd38"/>
    </g>
  </g>
</svg>
