<svg xmlns="http://www.w3.org/2000/svg" width="85" height="85" viewBox="0 0 85 85">
  <g id="Grupo_960243" data-name="Grupo 960243" transform="translate(-338 -6012)">
    <circle id="Elipse_5781" data-name="Elipse 5781" cx="42.5" cy="42.5" r="42.5" transform="translate(338 6012)" fill="#80cab6"/>
    <g id="nino" transform="translate(272.518 6025)">
      <path id="Trazado_727146" data-name="Trazado 727146" d="M104.342,174.475c0,2.851-1.744,5.162-3.9,5.162s-3.4-2.654-3.4-5.505,1.25-4.819,3.4-4.819S104.342,171.624,104.342,174.475Z" transform="translate(-6.699 -150.004)" fill="#ffa78f"/>
      <path id="Trazado_727147" data-name="Trazado 727147" d="M351.049,174.475c0,2.851,1.744,5.162,3.9,5.162s3.4-2.654,3.4-5.505-1.25-4.819-3.4-4.819S351.049,171.624,351.049,174.475Z" transform="translate(-231.737 -150.004)" fill="#ffa78f"/>
      <path id="Trazado_727148" data-name="Trazado 727148" d="M154.317,356.964v2H124.259v-2a9.452,9.452,0,0,1,6.852-9.087l3.579-1.024a2.2,2.2,0,0,0,1.593-2.112v-3.092h6.012v3.092a2.2,2.2,0,0,0,1.593,2.112l3.579,1.024A9.452,9.452,0,0,1,154.317,356.964Z" transform="translate(-30.811 -302.686)" fill="#ffb09e"/>
      <path id="Trazado_727149" data-name="Trazado 727149" d="M260.993,347.877l-3.579-1.024a2.2,2.2,0,0,1-1.593-2.112v-3.092H252.4v3.092a2.2,2.2,0,0,0,1.593,2.112l3.579,1.024a9.452,9.452,0,0,1,6.852,9.087v2h3.421v-2A9.452,9.452,0,0,0,260.993,347.877Z" transform="translate(-144.338 -302.686)" fill="#ffa78f"/>
      <path id="Trazado_727150" data-name="Trazado 727150" d="M145.828,76.284V67.731a12.569,12.569,0,1,1,25.139,0v8.506a12.569,12.569,0,1,1-25.139.047Z" transform="translate(-49.92 -48.871)" fill="#ffcebf"/>
      <path id="Trazado_727151" data-name="Trazado 727151" d="M242.583,55.162a12.689,12.689,0,0,0-1.711.116,12.571,12.571,0,0,1,10.859,12.453v8.506A12.6,12.6,0,0,1,240.85,88.714a12.594,12.594,0,0,0,14.3-12.477V67.731A12.569,12.569,0,0,0,242.583,55.162Z" transform="translate(-134.105 -48.871)" fill="#ffb09e"/>
      <path id="Trazado_727152" data-name="Trazado 727152" d="M131.329,18.48a8.276,8.276,0,0,0-2.94-5.448.289.289,0,0,1-.1-.222c.044-1.941-1.345-5.373-11.734-5.373-12.6,0-17,9.092-17.931,11.463a.344.344,0,0,0,.376.466c.566-.092,1.468-.239,2.33-.382a.232.232,0,0,1,.237.347A19.98,19.98,0,0,0,99.225,27.2a.214.214,0,0,0,.2.237,4.5,4.5,0,0,0,2.791-.75.311.311,0,0,1,.483.175c.425,1.623,1.284,4.445,1.284,4.445s2.443-2.167,2.357-2.988c-.138-1.312-.9-9.372,2.417-8.613s5.025,1.312,7.8,1.312,4.482-.552,7.8-1.312,2.555,7.3,2.417,8.613c-.086.821,2.357,2.988,2.357,2.988a14.628,14.628,0,0,1,.607-3.143C129.908,27.78,131.628,22.069,131.329,18.48Z" transform="translate(-8.077 -6.589)" fill="#ab695d"/>
      <g id="Grupo_960240" data-name="Grupo 960240" transform="translate(91.147 0.848)">
        <path id="Trazado_727153" data-name="Trazado 727153" d="M259.389,18.48a8.276,8.276,0,0,0-2.94-5.448.289.289,0,0,1-.1-.222c.044-1.941-1.345-5.373-11.734-5.373-.5,0-.993.016-1.471.044,8.615.405,9.825,3.517,9.784,5.329a.289.289,0,0,0,.1.222,8.276,8.276,0,0,1,2.94,5.448,26.256,26.256,0,0,1-.985,7.59c-.035,1.038-.118,1.891-.156,2.246-.086.821,2.357,2.988,2.357,2.988a14.629,14.629,0,0,1,.607-3.143C257.968,27.78,259.688,22.069,259.389,18.48Z" transform="translate(-227.284 -7.437)" fill="#9b5e5e"/>
        <path id="Trazado_727154" data-name="Trazado 727154" d="M104.132,177.531c0-.01-.007-.018-.011-.027-.015.12-.03.241-.043.364a.214.214,0,0,0,.2.237h.008C104.231,177.9,104.179,177.71,104.132,177.531Z" transform="translate(-104.077 -158.109)" fill="#9b5e5e"/>
      </g>
      <path id="Trazado_727155" data-name="Trazado 727155" d="M151.835,381.028V385.2a.684.684,0,0,1-.684.684H121.727a.684.684,0,0,1-.684-.684v-4.175a9.6,9.6,0,0,1,6.831-9.19l4.025-1.211c.161-.048.327,4.724,4.54,4.724s4.379-4.772,4.54-4.724L145,371.839A9.6,9.6,0,0,1,151.835,381.028Z" transform="translate(-27.961 -328.359)" fill="#6c7fd8"/>
      <path id="Trazado_727156" data-name="Trazado 727156" d="M242.9,419.943a1.692,1.692,0,0,1-1.692-1.692v-6.2h3.383v6.2A1.692,1.692,0,0,1,242.9,419.943Z" transform="translate(-134.424 -365.057)" fill="#f3eae6"/>
      <g id="Grupo_960241" data-name="Grupo 960241" transform="translate(112.773 42.268)">
        <path id="Trazado_727157" data-name="Trazado 727157" d="M297.979,371.839l-4.025-1.211a5.635,5.635,0,0,0-.244.956l.848.255a9.6,9.6,0,0,1,6.831,9.19V385.2a.684.684,0,0,1-.684.684h3.421a.684.684,0,0,0,.684-.684v-4.175A9.6,9.6,0,0,0,297.979,371.839Z" transform="translate(-293.71 -370.627)" fill="#0573ce"/>
      </g>
      <path id="Trazado_727158" data-name="Trazado 727158" d="M189.908,373.6c-7.011,5.948-8.346-2.6-8.511-3.972a.255.255,0,0,1,.139-.26c2.534-1.245,3.832-.492,3.832-.492A6.547,6.547,0,0,0,189.908,373.6Z" transform="translate(-81.43 -326.609)" fill="#faf7f7"/>
      <path id="Trazado_727159" data-name="Trazado 727159" d="M256.115,373.6c7.011,5.948,8.346-2.6,8.511-3.972a.255.255,0,0,0-.139-.26c-2.534-1.245-3.832-.492-3.832-.492A6.547,6.547,0,0,1,256.115,373.6Z" transform="translate(-147.629 -326.609)" fill="#faf7f7"/>
      <g id="Grupo_960242" data-name="Grupo 960242" transform="translate(89.482 0)">
        <path id="Trazado_727160" data-name="Trazado 727160" d="M121.614,30.144c6.7,2.768,8.1-11.635,1.781-11.685a24.272,24.272,0,0,0,.711-6.623,9.1,9.1,0,0,0-3.041-5.866,4.538,4.538,0,0,0-1.347-3.062C116.426-.749,104-.9,98.818,2.124a.855.855,0,0,0,.765,1.53c4.935-2.9,16.575-2.364,18.912.45a2.828,2.828,0,0,1,.861,2.1,1.143,1.143,0,0,0,.39.883,7.4,7.4,0,0,1,2.65,4.834c0,.014,0,.029,0,.043.268,3.219-1.258,8.6-1.525,9.259a7.627,7.627,0,0,0-.449,1.687,4.9,4.9,0,0,1-.877-1.161c.278-2.695.462-7.368-1.333-8.959-1.159-1.045-2.479-.382-3.778-.12a20.478,20.478,0,0,1-11.92,0c-.507-.121-1.05-.251-1.645-.387a2.311,2.311,0,0,0-2.133.507c-1.8,1.591-1.611,6.265-1.333,8.959a5.871,5.871,0,0,1-1.083,1.38c-.28-.945-.644-2.194-.874-3.073a1.166,1.166,0,0,0-1.818-.647,3.225,3.225,0,0,1-1.543.561,18.585,18.585,0,0,1,2.137-6.791,1.092,1.092,0,0,0-.04-1.168,1.076,1.076,0,0,0-1.074-.457l-1.406.231a17.769,17.769,0,0,1,4.743-6.1.855.855,0,1,0-1.085-1.323A19.4,19.4,0,0,0,89.751,12a1.2,1.2,0,0,0,1.309,1.623l1.1-.18A22.791,22.791,0,0,0,90.3,20.513c0,.013,0,.026,0,.039-2.094,3.669-.049,11.741,5.035,9.6a13.434,13.434,0,0,0,9.285,10.11V41.75a.855.855,0,0,0-.25-.221c-.173-.1-1.776-.942-4.638.464a1.11,1.11,0,0,0-.61.851,10.448,10.448,0,0,0-6.893,9.826v4.175a1.541,1.541,0,0,0,1.54,1.54h29.423a1.541,1.541,0,0,0,1.54-1.54V52.669c0-.327-.015-.656-.046-.98a.855.855,0,0,0-1.7.16c.025.271.038.547.038.82v4h-3.193V55.418a.855.855,0,0,0-1.711,0v1.254H98.841V55.418a.855.855,0,0,0-1.711,0v1.254H93.937v-4a8.681,8.681,0,0,1,5.436-8.092c.4,1.759,1.332,4.279,3.411,5.093a4.291,4.291,0,0,0,3.146-.088v3.612a2.547,2.547,0,0,0,5.094,0V49.579a4.294,4.294,0,0,0,3.154.091c2.079-.815,3.007-3.332,3.411-5.091a8.7,8.7,0,0,1,4.3,3.787.855.855,0,0,0,1.489-.843,10.4,10.4,0,0,0-5.53-4.677,1.11,1.11,0,0,0-.61-.854c-2.862-1.406-4.465-.565-4.638-.464a.851.851,0,0,0-.258.233v-1.52a13.5,13.5,0,0,0,9.275-10.1Zm-3.608-5.386c0,1.813-1.151,2.733-3.422,2.733s-3.422-.919-3.422-2.732c0-1.322.264-2.732,3.422-2.732s3.422,1.41,3.422,2.732Zm5.2-4.594c4.245.022,2.818,10.969-1.341,8.164.023-.318.035-.639.035-.963V24.758a12.987,12.987,0,0,1,.527-2.825,16.881,16.881,0,0,0,.541-1.754,2.118,2.118,0,0,1,.237-.013Zm-23.334-6.1a.61.61,0,0,1,.616-.12c7.021,1.781,8.959,1.779,15.974,0a.611.611,0,0,1,.616.12c.806.715,1.122,3.483.815,6.982a6.471,6.471,0,0,0-3.312-.735c-3.058,0-4.762,1.207-5.078,3.588h-2.056c-.316-2.381-2.019-3.588-5.078-3.588a6.471,6.471,0,0,0-3.312.735C98.753,17.552,99.068,14.782,99.874,14.068Zm2.5,7.958c3.157,0,3.422,1.41,3.422,2.733,0,1.813-1.151,2.732-3.422,2.732s-3.422-.919-3.422-2.732c0-1.322.264-2.732,3.422-2.732Zm-8.625,6.753c-2.4.023-3.1-4.99-2.114-7.074a5.575,5.575,0,0,0,2.352-.522c.39,1.409.923,3.178,1.069,3.659v2.571c0,.307.011.612.031.916a2.284,2.284,0,0,1-1.337.449Zm3.017-1.365v-1.8h.543c.361,2.263,2.2,3.588,5.065,3.588s4.7-1.325,5.065-3.588h2.081c.361,2.263,2.2,3.588,5.065,3.588s4.7-1.325,5.066-3.588h.543v1.752a11.715,11.715,0,0,1-23.429.048Zm6.646,20.664c-1.418-.556-2.231-2.8-2.533-4.73a4.215,4.215,0,0,1,2.359-.41,7.41,7.41,0,0,0,3.533,4.282c-1.1.735-2.344,1.255-3.358.858Zm5.905,5.117a.836.836,0,0,1-1.673,0v-4.5q.413-.272.84-.6.423.328.832.6Zm6.774-9.847c-.3,1.926-1.115,4.174-2.533,4.73-1.014.4-2.258-.123-3.358-.858a7.411,7.411,0,0,0,3.533-4.282,4.214,4.214,0,0,1,2.359.41Zm-5.092.16a.85.85,0,0,0,.4.372,5.533,5.533,0,0,1-2.916,2.217,5.531,5.531,0,0,1-2.877-2.159.85.85,0,0,0,.254-.258,3.048,3.048,0,0,0,.469-1.625V40.646a13.565,13.565,0,0,0,4.3-.009v1.417A3.063,3.063,0,0,0,111,43.507Z" transform="translate(-89.482 0)"/>
        <path id="Trazado_727161" data-name="Trazado 727161" d="M192.359,155.929a4.772,4.772,0,0,1,2.932,0,.855.855,0,0,0,.432-1.655,6.392,6.392,0,0,0-3.8,0,.855.855,0,0,0,.432,1.655Z" transform="translate(-179.677 -136.424)"/>
        <path id="Trazado_727162" data-name="Trazado 727162" d="M277.374,155.929a4.772,4.772,0,0,1,2.932,0,.855.855,0,0,0,.432-1.655,6.392,6.392,0,0,0-3.8,0,.855.855,0,0,0,.432,1.655Z" transform="translate(-254.996 -136.424)"/>
        <path id="Trazado_727163" data-name="Trazado 727163" d="M217,280.523a.855.855,0,0,0-.832-1.495,9.177,9.177,0,0,1-8.864,0,.855.855,0,0,0-.832,1.495A10.9,10.9,0,0,0,217,280.523Z" transform="translate(-192.741 -247.111)"/>
        <path id="Trazado_727164" data-name="Trazado 727164" d="M203.028,202.138a1.426,1.426,0,1,0-1.426-1.426A1.427,1.427,0,0,0,203.028,202.138Z" transform="translate(-188.815 -176.568)"/>
        <path id="Trazado_727165" data-name="Trazado 727165" d="M286.911,199.215a1.426,1.426,0,1,0,1.426,1.426A1.427,1.427,0,0,0,286.911,199.215Z" transform="translate(-263.132 -176.496)"/>
        <path id="Trazado_727166" data-name="Trazado 727166" d="M234.752,247.607a.855.855,0,0,0,1.2-.107,1.4,1.4,0,0,1,1.914-.007.855.855,0,0,0,1.2.119c1.047-1-.723-2.257-2.152-2.2a2.842,2.842,0,0,0-2.278.994A.855.855,0,0,0,234.752,247.607Z" transform="translate(-217.913 -217.419)"/>
        <path id="Trazado_727167" data-name="Trazado 727167" d="M189.869,54.112a.855.855,0,0,0-.887-1.463,21.536,21.536,0,0,1-7.524,2.169L173.7,55.864l.228,1.7,7.759-1.045A22.615,22.615,0,0,0,189.869,54.112Z" transform="translate(-164.094 -46.537)"/>
      </g>
    </g>
  </g>
</svg>
