<svg xmlns="http://www.w3.org/2000/svg" xmlns:xlink="http://www.w3.org/1999/xlink" width="295" height="223" viewBox="0 0 295 223">
  <defs>
    <clipPath id="clip-path">
      <rect id="Rectángulo_340541" data-name="Rectángulo 340541" width="295" height="223" transform="translate(1021 6121)" fill="#a7bce6"/>
    </clipPath>
  </defs>
  <g id="Enmascarar_grupo_927246" data-name="Enmascarar grupo 927246" transform="translate(-1021 -6121)" clip-path="url(#clip-path)">
    <g id="Grupo_960173" data-name="Grupo 960173" transform="translate(606.865 6078.736)">
      <path id="Trazado_726878" data-name="Trazado 726878" d="M485.884,102.807Q473.152,130,460.412,157.2c-9.19,19.622-18.508,39.7-20.806,61.241s3.683,45.211,20.506,58.863c15.555,12.617,37.362,14.715,53.908,26.006,28.308,19.319,33.116,58.3,36.263,92.428s10.659,73.449,40.936,89.5c32.63,17.294,75.086-4.937,92.242-37.64s15.6-71.728,12.332-108.513a1582.2,1582.2,0,0,0-36.818-226.363C645.748,57.175,624.825-10.106,556.089,21.26,520.013,37.725,502.093,68.2,485.884,102.807Z" transform="translate(0 0)" fill="#f1f4fb"/>
      <g id="Grupo_960172" data-name="Grupo 960172" transform="translate(480.111 47.499)">
        <g id="Grupo_960171" data-name="Grupo 960171">
          <path id="Trazado_726879" data-name="Trazado 726879" d="M456.77,59.315l-2.616,2.6,2.77,5.276s7.527.292,10.867-.7a8.994,8.994,0,0,0,4.553-2.605l-8.627-5.364Z" transform="translate(-440.25 72.628)" fill="#232d3f"/>
          <path id="Trazado_726880" data-name="Trazado 726880" d="M459.861,57.827l-6.092.467-.489,2.032,6.637.321Z" transform="translate(-442.569 70.773)" fill="#232d3f"/>
          <g id="Grupo_960159" data-name="Grupo 960159" transform="translate(0 121.047)">
            <path id="Trazado_726881" data-name="Trazado 726881" d="M458.982,57.482l-4.527,7.853a1.622,1.622,0,0,1-.179.259l-.047.051a1.589,1.589,0,0,1-1.162.5.48.48,0,0,1-.439-.676l3.329-7.4.267-.6Z" transform="translate(-444.413 -51.19)" fill="#f9a806"/>
            <g id="Grupo_960151" data-name="Grupo 960151">
              <path id="Trazado_726882" data-name="Trazado 726882" d="M481.839,86.274v35.221c0,.259-2.284.5-5.624.683-4,.223-9.511.373-14.4.391h-.99c-9.131,0-10.472-.482-10.472-1.074V90.439a3.816,3.816,0,0,1,3.274-3.775l7.286-1.907a3.847,3.847,0,0,0,3.241-4.546l-1.169-6.073a1.731,1.731,0,0,1,1.7-2.057h.384a1.783,1.783,0,0,0,1.765-1.535l.413-10.725.124-.892.047-.311h9.935v.311c.073,7.228,2.569,21.413,3.807,24.164A7.758,7.758,0,0,1,481.839,86.274Z" transform="translate(-450.349 -48.169)" fill="#dee7f0"/>
              <path id="Trazado_726883" data-name="Trazado 726883" d="M469.351,57.013v9.011a.5.5,0,0,1-.5.5H459.3a.5.5,0,0,1-.5-.5l-.829-3.259a.95.95,0,0,0-.917-.713h-3.329a.249.249,0,0,1-.249-.248V56.012a.252.252,0,0,1,.249-.252H468.1a1.258,1.258,0,0,1,1.246,1.118C469.347,56.926,469.351,56.969,469.351,57.013Z" transform="translate(-442.044 -55.76)" fill="#fac902"/>
              <path id="Trazado_726884" data-name="Trazado 726884" d="M456.336,55.815v5.894h-3.512a.412.412,0,0,1-.413-.413V56.228a.412.412,0,0,1,.413-.413Z" transform="translate(-444.874 -55.614)" fill="#f9a806"/>
              <path id="Rectángulo_340537" data-name="Rectángulo 340537" d="M.074,0H1.813a0,0,0,0,1,0,0V4.257a0,0,0,0,1,0,0H.074A.074.074,0,0,1,0,4.183V.074A.074.074,0,0,1,.074,0Z" transform="translate(5.725 1.018)" fill="#f77f08"/>
            </g>
            <rect id="Rectángulo_340538" data-name="Rectángulo 340538" width="11.964" height="1.66" rx="0.204" transform="translate(16.017 9.279)" fill="#f9a806"/>
            <g id="Grupo_960158" data-name="Grupo 960158" transform="translate(4.162 40.825)">
              <path id="Rectángulo_340539" data-name="Rectángulo 340539" d="M.75,0H30.806a.749.749,0,0,1,.749.749V25.407a.749.749,0,0,1-.749.749H.75a.75.75,0,0,1-.75-.75V.75A.75.75,0,0,1,.75,0Z" transform="translate(26.156) rotate(90)" fill="#f2f5f9" opacity="0.5"/>
              <g id="Grupo_960157" data-name="Grupo 960157" transform="translate(0.901 0.9)">
                <rect id="Rectángulo_340540" data-name="Rectángulo 340540" width="24.355" height="29.755" rx="0.503" fill="#c1d3f7"/>
                <path id="Trazado_726885" data-name="Trazado 726885" d="M471.13,71.7a11.208,11.208,0,1,0,3.281,7.922A11.145,11.145,0,0,0,471.13,71.7Zm-14.576,1.272a9.423,9.423,0,0,1,12.632-.607L455.947,85.608A9.416,9.416,0,0,1,456.554,72.976Zm13.3,13.3a9.416,9.416,0,0,1-12.632.607l13.239-13.239a9.4,9.4,0,0,1-.607,12.632Z" transform="translate(-451.027 -63.878)" fill="#f95353"/>
                <g id="Grupo_960156" data-name="Grupo 960156" transform="translate(5.624 8.15)">
                  <g id="Grupo_960152" data-name="Grupo 960152" transform="translate(6.974)">
                    <path id="Trazado_726886" data-name="Trazado 726886" d="M455.717,71.91l-.535-2.5,1.07,2.611Z" transform="translate(-455.182 -69.41)" fill="#2e3c54"/>
                    <path id="Trazado_726887" data-name="Trazado 726887" d="M456.223,71.275,458.441,70l-2.658.947Z" transform="translate(-453.585 -67.835)" fill="#2e3c54"/>
                  </g>
                  <path id="Trazado_726888" data-name="Trazado 726888" d="M458.441,72.55a1.8,1.8,0,1,1-.91-2.375A1.8,1.8,0,0,1,458.441,72.55Z" transform="translate(-448.705 -67.795)" fill="#2e3c54"/>
                  <path id="Trazado_726889" data-name="Trazado 726889" d="M461.033,75.912a8.5,8.5,0,0,1-5.2,4.348l-.055-1.206-.924.764a8.651,8.651,0,0,1-.245-6.775c.936-2.094,2.81-3.3,4.907-2.361S461.965,73.815,461.033,75.912Z" transform="translate(-451.322 -66.882)" fill="#2e3c54"/>
                  <g id="Grupo_960155" data-name="Grupo 960155" transform="translate(0 2.326)">
                    <g id="Grupo_960153" data-name="Grupo 960153">
                      <path id="Trazado_726890" data-name="Trazado 726890" d="M455.365,72.6,453.442,70.9l2.545.3Z" transform="translate(-452.827 -67.769)" fill="#2e3c54"/>
                      <path id="Trazado_726891" data-name="Trazado 726891" d="M455.206,72.321l-1.18-2.275,2.264,1.2Z" transform="translate(-451.277 -70.046)" fill="#2e3c54"/>
                      <path id="Trazado_726892" data-name="Trazado 726892" d="M455.647,71.761l-2.373.968,2.5.553Z" transform="translate(-453.273 -65.496)" fill="#2e3c54"/>
                    </g>
                    <g id="Grupo_960154" data-name="Grupo 960154" transform="translate(7.292 3.657)">
                      <path id="Trazado_726893" data-name="Trazado 726893" d="M455.865,73.226l2.545.3-1.923-1.693Z" transform="translate(-453.688 -68.961)" fill="#2e3c54"/>
                      <path id="Trazado_726894" data-name="Trazado 726894" d="M456.131,72.57l2.481-.641-2.406-.882Z" transform="translate(-452.982 -71.047)" fill="#2e3c54"/>
                      <path id="Trazado_726895" data-name="Trazado 726895" d="M456.487,72.51l.865,2.412-2.083-1.493Z" transform="translate(-455.269 -67.164)" fill="#2e3c54"/>
                    </g>
                  </g>
                </g>
              </g>
            </g>
            <path id="Trazado_726896" data-name="Trazado 726896" d="M469.57,86.093v35.221c0,.259-2.284.5-5.624.683V84a45.443,45.443,0,0,1-2.715-11.083c-.406-3.15-3.08-13.279-6.259-13.279h0l.124-.888h9.983c.073,7.224,2.569,21.413,3.807,24.164A7.741,7.741,0,0,1,469.57,86.093Z" transform="translate(-438.079 -47.814)" fill="#677ca1" opacity="0.15"/>
            <path id="Trazado_726897" data-name="Trazado 726897" d="M461.812,65.755v38.053h-.99c-9.131,0-10.472-.479-10.472-1.074V71.678a3.809,3.809,0,0,1,3.274-3.771L460.909,66A3.817,3.817,0,0,0,461.812,65.755Z" transform="translate(-450.349 -29.233)" fill="#f2f5f9" opacity="0.5"/>
            <path id="Trazado_726898" data-name="Trazado 726898" d="M468.1,55.76l-13.5,1.019v5.273h-.873a.249.249,0,0,1-.249-.248V56.012a.252.252,0,0,1,.249-.252Z" transform="translate(-442.044 -55.76)" fill="#f2f5f9" opacity="0.5"/>
            <path id="Trazado_726899" data-name="Trazado 726899" d="M457.789,57.482l-4.527,7.853a1.622,1.622,0,0,1-.179.259l-.047.051,3.855-7.567h-2.127l.267-.6Z" transform="translate(-443.22 -51.19)" fill="#f77f08"/>
            <path id="Trazado_726900" data-name="Trazado 726900" d="M456.307,56.265v4.25h-3.482a.412.412,0,0,1-.413-.413h.818a2.985,2.985,0,0,0,2.971-2.7Z" transform="translate(-444.874 -54.42)" fill="#f77f08"/>
            <path id="Trazado_726901" data-name="Trazado 726901" d="M464.327,56.2v8.024h-8.956l8.412-.515.537-7.644C464.323,56.113,464.327,56.157,464.327,56.2Z" transform="translate(-437.02 -54.948)" fill="#f77f08"/>
          </g>
          <path id="Trazado_726902" data-name="Trazado 726902" d="M491.85,91.3s10.008-8.3,14.444-26.009-14.927-23.726-14.927-23.726S480.95,59.415,474.782,74.908C487.366,87.244,491.85,91.3,491.85,91.3Z" transform="translate(-385.503 27.602)" fill="#bdcce8"/>
          <path id="Trazado_726903" data-name="Trazado 726903" d="M484.358,38.827l-5.037,2.241,3.035,2.918,3.894-3.32Z" transform="translate(-373.457 20.346)" fill="#bdcce8"/>
          <g id="Grupo_960160" data-name="Grupo 960160" transform="translate(113.355 178.477)">
            <path id="Trazado_726904" data-name="Trazado 726904" d="M481.372,71.477s0,51.73,1.761,100.011a149.325,149.325,0,0,0,3.227,25.94c3.446,16.041,10.557,51.635,13.549,88.789q.466,5.821.738,11.81h12.734c.183-4.195.409-8.1.672-11.748,2.382-33.317,7.575-50.349,6.395-79.745-.314-7.776-4.615-20.506-4.615-20.506s13.534-73.683,13.534-99.09c0-5.521-2.3-15.46-2.3-15.46Z" transform="translate(-481.368 -71.477)" fill="#acbfe2"/>
            <path id="Trazado_726905" data-name="Trazado 726905" d="M481.372,71.477s0,51.73,1.761,100.011a149.325,149.325,0,0,0,3.227,25.94c3.446,16.041,10.557,51.635,13.549,88.789q.466,5.821.738,11.81h12.734c.183-4.195.409-8.1.672-11.748,2.382-33.317,7.575-50.349,6.395-79.745-.314-7.776-4.615-20.506-4.615-20.506s13.534-73.683,13.534-99.09c0-5.521-2.3-15.46-2.3-15.46Z" transform="translate(-481.368 -71.477)" fill="#41313b"/>
            <path id="Trazado_726906" data-name="Trazado 726906" d="M486.445,130.245c.311,3.881.683,12.537.862,16.531h12.577c.183-4.195.442-12.818.705-16.469C498.682,131.411,493.03,132.8,486.445,130.245Z" transform="translate(-467.904 84.495)" fill="#f6c1af"/>
            <path id="Trazado_726907" data-name="Trazado 726907" d="M481.522,147.271a1.1,1.1,0,0,0,1.1,1.085h31.691a10.288,10.288,0,0,0,.409-1.341c.015-.1.026-.2.037-.3a25.977,25.977,0,0,0-1.118-11.072l-.658-2.013s-4.016,3.749-12.734,0c-2.836-1.22-2.507,3.095-3.055,3.592-4.82,4.319-9.617,4.692-12.789,5.865a4.4,4.4,0,0,0-2.876,3.924C481.522,147.1,481.522,147.187,481.522,147.271Z" transform="translate(-480.97 92.915)" fill="#41313b"/>
            <path id="Trazado_726908" data-name="Trazado 726908" d="M481.371,138.255a1.1,1.1,0,0,0,1.1,1.085h32.243a10.288,10.288,0,0,0,.409-1.341c.015-.1.026-.2.037-.3l-32.528-.888a1.216,1.216,0,0,0-1.253,1.133V138C481.371,138.083,481.371,138.171,481.371,138.255Z" transform="translate(-481.371 101.931)" fill="#41313b"/>
          </g>
          <path id="Trazado_726909" data-name="Trazado 726909" d="M491.544,28.776s-1.067,15.1,7.995,31.764A11.591,11.591,0,0,1,499.78,71.3a9.932,9.932,0,0,1-3.2,3.815L485.339,62.74s-.1-12.972-.055-13.3S491.544,28.776,491.544,28.776Z" transform="translate(-357.66 -6.329)" fill="#bf6449"/>
          <path id="Trazado_726910" data-name="Trazado 726910" d="M499.775,28.936s-2.664,22.889,6.957,36.708S489,86.64,483.438,80.586s8.927-19.637,3.764-34.859S499.775,28.936,499.775,28.936Z" transform="translate(-365.968 -5.905)" fill="#7f452f"/>
          <g id="Grupo_960161" data-name="Grupo 960161" transform="translate(132.184 178.477)">
            <path id="Trazado_726911" data-name="Trazado 726911" d="M486.525,71.477s0,3.994.036,10.8c.1,17.685.453,54.346,1.725,89.213a149.938,149.938,0,0,0,3.227,25.936c3.446,16.041,10.556,51.635,13.549,88.793q.471,5.815.742,11.81h12.734c.183-4.2.406-8.1.672-11.751,2.382-33.317,7.571-50.345,6.395-79.742-.314-7.779-4.619-20.506-4.619-20.506s7.505-68.151,8.463-95.969c.04-1.107.058-2.152.058-3.124,0-5.518-2.3-15.457-2.3-15.457Z" transform="translate(-486.521 -71.477)" fill="#56414f"/>
            <path id="Trazado_726912" data-name="Trazado 726912" d="M491.6,130.245c.314,3.877.687,12.537.862,16.531h12.577c.183-4.2.446-12.818.709-16.472C503.835,131.411,498.182,132.8,491.6,130.245Z" transform="translate(-473.057 84.495)" fill="#f6c1af"/>
            <path id="Trazado_726913" data-name="Trazado 726913" d="M486.675,147.272a1.105,1.105,0,0,0,1.1,1.085h31.691a10.283,10.283,0,0,0,.409-1.341c.015-.1.026-.2.036-.3a25.9,25.9,0,0,0-1.114-11.068l-.658-2.013s-4.016,3.749-12.734,0c-2.839-1.224-2.51,3.095-3.058,3.588-4.82,4.323-9.617,4.7-12.785,5.865a4.424,4.424,0,0,0-2.646,2.715,4.229,4.229,0,0,0-.234,1.213C486.675,147.1,486.675,147.184,486.675,147.272Z" transform="translate(-486.123 92.914)" fill="#56414f"/>
            <path id="Trazado_726914" data-name="Trazado 726914" d="M486.524,138.255a1.106,1.106,0,0,0,1.1,1.085h32.239a10.283,10.283,0,0,0,.409-1.341c.015-.1.026-.2.036-.3l-32.528-.884a1.214,1.214,0,0,0-1.25,1.129l0,.055C486.528,138.083,486.524,138.167,486.524,138.255Z" transform="translate(-486.524 101.931)" fill="#41313b"/>
          </g>
          <path id="Trazado_726915" data-name="Trazado 726915" d="M483.466,60.455,479.7,33.894l15.31-2.9s.8,12.3,5.145,22.5c0,0-3.807,2.3-8.148,4.385-4.4,2.119-8.218,3.318-8.525,2.682l-.007-.018A.213.213,0,0,1,483.466,60.455Z" transform="translate(-372.446 -0.445)" fill="#f1a19a"/>
          <path id="Trazado_726916" data-name="Trazado 726916" d="M483.284,24.458s-5.923.892-7.79,3.219c-2.667,3.325-2.4,10.308,3.953,15.168C483.84,39.023,485.294,26.713,483.284,24.458Z" transform="translate(-387.852 -17.789)" fill="#7f452f"/>
          <path id="Trazado_726917" data-name="Trazado 726917" d="M478.446,63.207c1.447,5.481,5.854,10.885,9.53,14.3.7.647,1.863.46,3.526.106,5.364-1.155,11.9-6.245,16.439-12.753,1.341-2.6.709-6.683,1.728-11.528,1.177-5.58,6.888-10.823,6.256-14.156-2.13-11.24-10.688-17.134-26.272-14.876-12.172,1.761-16.626,10.549-13.432,21.274.2.672.376,1.308.533,1.9.1.373.186.731.27,1.074.073.307.139.6.2.888.033.135.059.274.088.406.1.5.186.968.259,1.414.055.34.1.669.142.983l.026.208C478.3,57.091,477.273,58.764,478.446,63.207Z" transform="translate(-384.337 -19.476)" fill="#f6c1af"/>
          <path id="Trazado_726918" data-name="Trazado 726918" d="M478.423,33.157a6.049,6.049,0,0,0,2.77,2.287,8.67,8.67,0,0,0,1.692.555c.15.033.3.058.457.077,3.643.453,6.767-3.164,6.767-3.164a12.046,12.046,0,0,0-1.253-1.133,9.713,9.713,0,0,0-3.5-1.871c-1.7-.424-4.495,1.407-5.963,2.492C478.8,32.839,478.423,33.157,478.423,33.157Z" transform="translate(-375.84 -3.49)" fill="#fff"/>
          <path id="Trazado_726919" data-name="Trazado 726919" d="M479.045,33.019a2.217,2.217,0,0,0,.6,1.162,8.67,8.67,0,0,0,1.692.555c.15.033.3.058.457.077a2.275,2.275,0,1,0-2.752-1.794Z" transform="translate(-374.295 -2.226)" fill="#6b3c2a"/>
          <path id="Trazado_726920" data-name="Trazado 726920" d="M479.98,31.509a.837.837,0,1,0,.665-.979A.834.834,0,0,0,479.98,31.509Z" transform="translate(-371.748 -1.715)" fill="#fff"/>
          <path id="Trazado_726921" data-name="Trazado 726921" d="M476.431,35.27c.051.007.128.022.227.037a9.186,9.186,0,0,0,3.1-.2,12.324,12.324,0,0,0,3.417-1.352c-.022-.643-.058-1.29-.1-1.933-.018-.263-.037-.526-.058-.789L483,30.893a8.555,8.555,0,0,0-7.286.479c.073.307.139.6.2.888.143.65.256,1.253.347,1.82C476.329,34.5,476.387,34.894,476.431,35.27Z" transform="translate(-383.027 -2.296)" fill="#fff"/>
          <path id="Trazado_726922" data-name="Trazado 726922" d="M476.2,34.355a2.293,2.293,0,0,0,.252.245,9.186,9.186,0,0,0,3.1-.2,2.276,2.276,0,1,0-3.753-2.445c.1.5.186.968.259,1.414C476.108,33.712,476.156,34.041,476.2,34.355Z" transform="translate(-382.817 -1.589)" fill="#6b3c2a"/>
          <path id="Trazado_726923" data-name="Trazado 726923" d="M476.788,31.754a.837.837,0,1,0,.665-.979A.835.835,0,0,0,476.788,31.754Z" transform="translate(-380.22 -1.064)" fill="#fff"/>
          <path id="Trazado_726924" data-name="Trazado 726924" d="M475.715,31.371c.073.307.139.6.2.888,2.605-1.166,5.952-.672,7.155-.435-.018-.263-.037-.526-.058-.789L483,30.893A8.555,8.555,0,0,0,475.715,31.371Z" transform="translate(-383.027 -2.296)" fill="#f1a19a"/>
          <path id="Trazado_726925" data-name="Trazado 726925" d="M475.534,31.956c.344-.139.676-.267,1.019-.369s.687-.19,1.034-.259.7-.121,1.052-.161.705-.069,1.06-.088c.712-.033,1.425-.029,2.141,0,.57.026,1.14.066,1.714.113l0-.058,0-.069a10.044,10.044,0,0,0-1.67-.38,11.088,11.088,0,0,0-2.2-.117,9.092,9.092,0,0,0-2.185.373,7.392,7.392,0,0,0-1.031.413A5.359,5.359,0,0,0,475.534,31.956Z" transform="translate(-383.507 -1.606)" fill="#97452d"/>
          <g id="Grupo_960162" data-name="Grupo 960162" transform="translate(103.551 26.356)">
            <path id="Trazado_726926" data-name="Trazado 726926" d="M478.688,32.4a16.355,16.355,0,0,1,9.464-.621,9.713,9.713,0,0,0-3.5-1.871C482.952,29.485,480.157,31.315,478.688,32.4Z" transform="translate(-478.688 -29.846)" fill="#f1a19a"/>
            <path id="Trazado_726927" data-name="Trazado 726927" d="M478.688,31.438c.778-.212,1.553-.4,2.335-.544.2-.029.391-.062.588-.1s.391-.051.588-.077.395-.044.592-.062c.1-.011.2-.022.3-.026l.3-.018.3-.018.3-.011c.2-.007.395-.011.6-.011s.395,0,.6,0,.395.011.6.022c.793.037,1.586.113,2.386.216a11.329,11.329,0,0,0-2.364-.515c-.1-.011-.2-.026-.3-.037l-.3-.022c-.2-.015-.406-.022-.607-.029s-.406,0-.61,0l-.3.007-.3.015a13.331,13.331,0,0,0-2.4.369A11.522,11.522,0,0,0,478.688,31.438Z" transform="translate(-478.688 -28.884)" fill="#97452d"/>
          </g>
          <g id="Grupo_960163" data-name="Grupo 960163" transform="translate(101.677 43.203)">
            <path id="Trazado_726928" data-name="Trazado 726928" d="M480.086,34.48a2.29,2.29,0,0,0-.57-.011,2.7,2.7,0,0,0-.563.113,1.433,1.433,0,0,0-.515.274.7.7,0,0,0-.263.508.856.856,0,0,1,.336-.413,1.921,1.921,0,0,1,.49-.223,4.233,4.233,0,0,1,.533-.139Z" transform="translate(-478.175 -34.457)" fill="#f1a19a"/>
          </g>
          <g id="Grupo_960165" data-name="Grupo 960165" transform="translate(102.325 23.641)">
            <g id="Grupo_960164" data-name="Grupo 960164">
              <path id="Trazado_726929" data-name="Trazado 726929" d="M489.806,30.462a7.09,7.09,0,0,0-1.016-.738,4.639,4.639,0,0,0-1.18-.5l-.026,0-.015,0a22.827,22.827,0,0,0-4.469,0,20.957,20.957,0,0,0-4.4.932.5.5,0,1,0,.311.95l.022-.007,0,0a20.311,20.311,0,0,1,4.162-1.129,22.048,22.048,0,0,1,4.337-.241l-.036-.007a4.309,4.309,0,0,1,1.085.395,6.605,6.605,0,0,1,1,.643.184.184,0,0,0,.252-.033A.182.182,0,0,0,489.806,30.462Z" transform="translate(-478.352 -29.103)" fill="#97452d"/>
            </g>
          </g>
          <path id="Trazado_726930" data-name="Trazado 726930" d="M483.9,30.927a4.285,4.285,0,0,0-1.827-1.206,5.088,5.088,0,0,0-1.1-.23c-.186-.015-.38-.022-.559-.022s-.365.007-.548.015a20.377,20.377,0,0,0-2.163.23c-.713.106-1.422.248-2.127.406a.311.311,0,0,0,.135.607h0c.347-.08.694-.161,1.042-.23s.7-.143,1.045-.208q1.047-.2,2.1-.307c.175-.015.351-.029.526-.04a4.848,4.848,0,0,1,.515-.007,4.559,4.559,0,0,1,1.012.157,5.54,5.54,0,0,1,.968.365,7.266,7.266,0,0,1,.91.541.048.048,0,0,0,.066-.015.044.044,0,0,0,0-.055Z" transform="translate(-384.033 -4.49)" fill="#97452d"/>
          <path id="Trazado_726931" data-name="Trazado 726931" d="M477.249,46.268l.007-.007a5.5,5.5,0,0,0,.9-1.823,14,14,0,0,0,.46-2.017,35.028,35.028,0,0,0,.373-4.155c.051-1.392.058-2.792.033-4.187s-.066-2.8-.135-4.195c.194,1.389.325,2.784.406,4.188s.11,2.8.069,4.206c-.022.7-.055,1.407-.117,2.1s-.15,1.4-.27,2.1a12.958,12.958,0,0,1-.523,2.057,5.583,5.583,0,0,1-.972,1.805c.058.088.117.175.179.259.08.1.157.212.245.314a5.879,5.879,0,0,0,.548.581,5.457,5.457,0,0,0,.636.49,3.349,3.349,0,0,0,.724.362,3.08,3.08,0,0,1-.756-.3,5.03,5.03,0,0,1-.683-.453,6.241,6.241,0,0,1-.607-.559c-.095-.1-.179-.2-.27-.311s-.168-.216-.252-.325A.1.1,0,0,1,477.249,46.268Z" transform="translate(-379.022 -3.391)" fill="#f1a19a"/>
          <path id="Trazado_726932" data-name="Trazado 726932" d="M475.407,39.463c1.224-1.367,10.012-6.756,15.7-3.457,14.59,8.459,6.047,14.141,15.471,16.1l8.214.676a14.532,14.532,0,0,0,3.427-9.855,12.657,12.657,0,0,0-.183-1.447c-1.221-6.424-3.932-14.945-10.98-16.527s-24.486-6.72-30.248,6.431C474.527,36.6,475.407,39.463,475.407,39.463Z" transform="translate(-384.287 -22.633)" fill="#bf6449"/>
          <path id="Trazado_726933" data-name="Trazado 726933" d="M475.286,33.9c1.224-1.367,10.012-6.756,15.7-3.457,14.59,8.459,6.047,14.141,15.471,16.1.782-2.828,2.9-4.776,5.167-4.542,1.889.2,3.362,1.856,3.91,4.1A14.185,14.185,0,0,0,518.1,37.36c-14.4,3.61-10.483-10.611-24.5-12.409C478.867,23.066,475.286,33.9,475.286,33.9Z" transform="translate(-384.166 -17.066)" fill="#7f452f" opacity="0.25"/>
          <path id="Trazado_726934" data-name="Trazado 726934" d="M479.514,49.553l5.346-6.617a35.182,35.182,0,0,0,8.225-4.962l-9.1,4.063A45.318,45.318,0,0,0,479.514,49.553Z" transform="translate(-372.944 18.08)" fill="#f1a19a"/>
          <path id="Trazado_726935" data-name="Trazado 726935" d="M483.565,89.25c13.874,22.381,6.1,73.347,6.1,73.347s17.631-.051,36.76-.04c3.943,0,7.958,0,11.886.007,3.738.007,7.4.018,10.871.033-1.451-41.393-7.451-69.193-14.335-87.89-1.451-3.932-2.938-7.458-4.429-10.626-4.8-10.2-9.661-16.662-13.439-20.788a22.655,22.655,0,0,0-8.072-5.236c-2.43-.917-4.867-1.264-6.647-.471l-5.814,2.591a34.841,34.841,0,0,1-8.222,4.955l-5.346,6.621-.007.011C478.785,60.266,474.612,74.809,483.565,89.25Z" transform="translate(-376.312 15.88)" fill="#acbfe2"/>
          <path id="Trazado_726936" data-name="Trazado 726936" d="M485.551,75.5c.928,10.023.837,25.732-.793,52.881-.249,4.144-.442,8.357-.585,12.606l0,.022c-1.619,48.058,3.08,100.727,4.341,113.71a4.036,4.036,0,0,0,3.42,3.6c6.142.928,20.916,2.108,40.435-3.446a3.559,3.559,0,0,0,2.349-4.67c-9.237-24.847-2.382-106.982,10.86-128.355a13.41,13.41,0,0,0-.417-6.519,58.417,58.417,0,0,1-5.507-3.892,116.789,116.789,0,0,1-15.478-14.609,142.538,142.538,0,0,1-27.091-45.653,1.762,1.762,0,0,0-1.688-1.147c-.175.007-.365.015-.566.026a38.527,38.527,0,0,0-4.22.457A32.451,32.451,0,0,0,483,52.71l-.007.007a22.813,22.813,0,0,0-2.737,1.414A1.318,1.318,0,0,0,479.8,55.9C482.445,60.625,484.572,64.863,485.551,75.5Z" transform="translate(-372.642 50.092)" fill="#9a88a0"/>
          <path id="Trazado_726937" data-name="Trazado 726937" d="M489.525,143.166l2.536.57c2.594-4.348,10.706-30.654,16.315-49.377,2.24-7.465,4.078-13.728,5.01-16.907a116.789,116.789,0,0,1-15.478-14.609L499.2,75.87,496.49,94.352,491.652,127.3Z" transform="translate(-346.375 84.085)" fill="#56414f" opacity="0.25"/>
          <path id="Trazado_726938" data-name="Trazado 726938" d="M489.446,56.366,494.068,72.4l4.049,40.728A116.789,116.789,0,0,0,513.6,127.74l.011-.04a10.884,10.884,0,0,0,.343-4.473L505.122,56.79c-1.451-3.932-2.938-7.458-4.429-10.626L493.4,43.9Z" transform="translate(-346.585 33.797)" fill="#90aad3"/>
          <g id="Grupo_960168" data-name="Grupo 960168" transform="translate(129.977 62.118)">
            <g id="Grupo_960166" data-name="Grupo 960166">
              <path id="Trazado_726939" data-name="Trazado 726939" d="M485.96,54.3c.438,9.493,3.186,21.723,6.362,33.084.325,1.177.661,2.35,1,3.5,4.673,16.052,8.952,31.549,8.952,31.549l14.51-2.868s-1.067-13.991-3.588-31.52c-.175-1.209-.358-2.441-.545-3.683-1.568-10.3-3.614-21.522-6.223-31.7-1.677-6.548-6.913-12.939-14.448-13.034C487.791,39.578,485.591,46.426,485.96,54.3Z" transform="translate(-485.92 -39.633)" fill="#f6c1af"/>
              <path id="Trazado_726940" data-name="Trazado 726940" d="M509.545,61.509s.574,4.743.5,6.106c-.65,12.358-12.15,60.174-12.15,60.174l-9.252-1.769c2.894-22.637,2.3-37.841,4.14-53.721.508-4.385,3.121-9.968,3.121-9.968Z" transform="translate(-478.68 18.427)" fill="#f6c1af"/>
            </g>
            <g id="Grupo_960167" data-name="Grupo 960167" transform="translate(2.642 144.447)">
              <path id="Trazado_726941" data-name="Trazado 726941" d="M502.848,83.162l-5.671,15.815a.83.83,0,0,1-.95.53h0A.827.827,0,0,1,495.6,98.5l2.306-9.343-3.829,10.107a.8.8,0,0,1-.9.5h0a.8.8,0,0,1-.632-.943L494.7,88.384l-3.618,10.173a.969.969,0,0,1-1.191.6h0a.972.972,0,0,1-.665-1.18l2.763-10.363-3.9,9.548a.753.753,0,0,1-.946.427h0a.756.756,0,0,1-.479-.892l3.968-15.826,8.609.884Z" transform="translate(-486.643 -74.623)" fill="#232d3f"/>
              <path id="Trazado_726942" data-name="Trazado 726942" d="M500.413,80.933l-.058,4.637a8.164,8.164,0,0,1-2.339,5.609h0a5.017,5.017,0,0,1-5.4,1.151l-1.37-.537a5.578,5.578,0,0,1-3.442-6.256h0a12.415,12.415,0,0,1,3.358-6.373h0Z" transform="translate(-483.835 -79.164)" fill="#2e3c54"/>
            </g>
            <path id="Trazado_726943" data-name="Trazado 726943" d="M502.38,77.964a24.242,24.242,0,0,0-12.957-2.719l-.775,14.415,9.252,1.769Z" transform="translate(-478.68 54.787)" fill="#2e3c54"/>
          </g>
          <path id="Trazado_726944" data-name="Trazado 726944" d="M479.512,45.962l6.812-3.82.784-.44-2.244-2.371-5.347,6.619Z" transform="translate(-372.949 21.683)" fill="#bdcce8"/>
          <path id="Trazado_726945" data-name="Trazado 726945" d="M480.977,47.742a5.97,5.97,0,0,0,1.462,2.81,13.483,13.483,0,0,0,1.133,1.213,45.439,45.439,0,0,0,18.087-11.1,8.542,8.542,0,0,0-4.885-4.5,57.7,57.7,0,0,1-7.571,6.617A35.182,35.182,0,0,1,480.977,47.742Z" transform="translate(-369.062 13.273)" fill="#bdcce8"/>
          <path id="Trazado_726946" data-name="Trazado 726946" d="M472.228,74.791l10.293,5.324s5.993-6.336,12.727-14.751c.183-.227.365-.457.552-.683l.007,0a1.521,1.521,0,0,0,.124-.153c.731-1.242-1.491-5.028-5.159-8.7-3.833-3.833-7.794-6.088-8.846-5.032a.648.648,0,0,0-.113.146.585.585,0,0,0-.077.175C475.926,64.417,472.228,74.791,472.228,74.791Z" transform="translate(-392.282 51.408)" fill="#f6c1af"/>
          <path id="Trazado_726947" data-name="Trazado 726947" d="M522.745,62.425a9.211,9.211,0,0,0-8.415-6.552c-11.32-1.009-16.092,5.6-56.458,7.425l.713,9.131s41.952,1.6,58.062-3.285C520.932,67.848,522.745,62.425,522.745,62.425Z" transform="translate(-430.385 65.312)" fill="#f6c1af"/>
          <path id="Trazado_726948" data-name="Trazado 726948" d="M483.119,82.254a38.625,38.625,0,0,1,4.217-.46c-.957-7.078-4.3-39.664,15.172-41.367l3.318.387-3.27-2.726S478.142,36.3,483.119,82.254Z" transform="translate(-365.153 18.36)" fill="#6f6377"/>
          <path id="Trazado_726949" data-name="Trazado 726949" d="M483.418,77.737a22.36,22.36,0,0,1,2.74-1.418l0-.007s-10.323-20.956-3.789-35.17C478.186,47.694,475.755,63.128,483.418,77.737Z" transform="translate(-375.803 26.49)" fill="#6f6377"/>
          <path id="Trazado_726950" data-name="Trazado 726950" d="M480.872,122.5l4.765-50.316A10.837,10.837,0,0,1,497.242,62.4l7.136.541L482.253,57l0,.007c.928,10.023.837,25.732-.793,52.881C481.208,114.035,481.015,118.248,480.872,122.5Z" transform="translate(-369.34 68.586)" fill="#56414f" opacity="0.25"/>
          <path id="Trazado_726951" data-name="Trazado 726951" d="M457.179,58.086l-1.955,2.7a2.45,2.45,0,0,0,.04,2.923l.742.976a.872.872,0,0,0,1.147.216h0a1.523,1.523,0,0,0,.5-2.1l-.274-.435,1.48-1.465s2.4,6.632,7.98,6.782l-.713-9.131S459.813,56.676,457.179,58.086Z" transform="translate(-438.642 70.064)" fill="#2e3c54"/>
          <g id="Grupo_960169" data-name="Grupo 960169" transform="translate(13.462 134.016)">
            <path id="Trazado_726952" data-name="Trazado 726952" d="M455.552,61.687l1.063-.61a.948.948,0,0,0,.395-1.206h0a.944.944,0,0,0-1.155-.515l-1.169.38a.941.941,0,0,0-.57,1.283l.1.23A.946.946,0,0,0,455.552,61.687Z" transform="translate(-454.033 -59.309)" fill="#232d3f"/>
            <path id="Trazado_726953" data-name="Trazado 726953" d="M455.8,62.24l1.063-.61a.943.943,0,0,0,.395-1.2h0a.948.948,0,0,0-1.158-.515l-1.166.376a.948.948,0,0,0-.574,1.283l.1.234A.947.947,0,0,0,455.8,62.24Z" transform="translate(-453.379 -57.831)" fill="#232d3f"/>
            <path id="Trazado_726954" data-name="Trazado 726954" d="M456.047,62.8l1.063-.61a.942.942,0,0,0,.391-1.2h0a.941.941,0,0,0-1.155-.519l-1.166.38a.945.945,0,0,0-.574,1.283l.1.23A.947.947,0,0,0,456.047,62.8Z" transform="translate(-452.723 -56.355)" fill="#232d3f"/>
          </g>
          <path id="Trazado_726955" data-name="Trazado 726955" d="M497.339,34.517a26.672,26.672,0,0,0,2.7,3.5,6.286,6.286,0,0,1,1.257,6.376c-1.37,3.771-4.067,7.162-11.21,9.5a6.5,6.5,0,0,1-6.7-1.674,24.56,24.56,0,0,1-7.378-14.791c1.411-1.1,3.866-4.173,6.833-3.786,2.017.263,4.2.965,10.761-.618A3.485,3.485,0,0,1,497.339,34.517Z" transform="translate(-382.252 4.691)" fill="#6f6377"/>
          <path id="Trazado_726956" data-name="Trazado 726956" d="M485.707,46.34a.825.825,0,0,0,.577-.238l8.032-8a.83.83,0,0,0,.215-.786l-1.41-5.507a.82.82,0,0,0-.5-.559.81.81,0,0,0-.742.077l-10.366,6.764a.818.818,0,0,0,.9,1.37l9.405-6.139,1.012,3.95-7.7,7.666a.819.819,0,0,0,.577,1.4Z" transform="translate(-368.611 0.095)" fill="#6f6377"/>
          <g id="Grupo_960170" data-name="Grupo 960170" transform="translate(121.969 24.912)">
            <path id="Trazado_726957" data-name="Trazado 726957" d="M486.8,42.394c1.6.347,6.139-2.4,6.512-5.963a8.508,8.508,0,0,0-.179-2.865c-.548-2.24-2.021-3.9-3.91-4.1-2.266-.234-4.385,1.714-5.167,4.542a8.4,8.4,0,0,0-.27,1.425C483.409,39,485.06,42.018,486.8,42.394Z" transform="translate(-483.729 -29.451)" fill="#f6c1af"/>
            <path id="Trazado_726958" data-name="Trazado 726958" d="M486.2,39.653c1.422-.267,4.177-2.2,4.422-4.535.278-2.653-1.02-5.05-2.836-5.24a2.142,2.142,0,0,0-.665.029c-1.608.3-2.953,2.2-3.194,4.509-.3,2.839.987,5.046,1.966,5.258A.928.928,0,0,0,486.2,39.653Z" transform="translate(-483.31 -28.351)" fill="#f1a19a"/>
          </g>
          <path id="Trazado_726959" data-name="Trazado 726959" d="M453.177,58.755a.94.94,0,0,0,.417,1.228c.4.124.862-.227,1.034-.782a.943.943,0,0,0-.417-1.228C453.813,57.849,453.349,58.2,453.177,58.755Z" transform="translate(-443.012 71.094)" fill="#232d3f"/>
          <path id="Trazado_726960" data-name="Trazado 726960" d="M469.758,57.56s2.4,6.164,1.008,10.929l-12.182-.811-.713-9.131Z" transform="translate(-430.385 70.064)" fill="#2e3c54"/>
        </g>
        <path id="Trazado_726961" data-name="Trazado 726961" d="M491.591,85.3c-5.1-17.985-12.084-42.259,1.173-46.187,7.549-2.1,20.119,3.146,23.9,46.249,0,0,2.116,19.681,3.8,39.5s-3.716,48.562-8.744,49.947-12.957-2.719-12.957-2.719-2.013-7.776.058-35.6a83.007,83.007,0,0,0-1.582-23.4C494.273,99.155,491.8,86.045,491.591,85.3Z" transform="translate(-358.037 20.064)" fill="#bdcce8"/>
        <path id="Trazado_726962" data-name="Trazado 726962" d="M531.609,67.252S519.723,83.18,510.719,87.3s-44.1,5.733-47.952,2.547a12.023,12.023,0,0,1-1.008-10.929s19.914-3.544,41.755-7.2a221.765,221.765,0,0,1,9.939-22.209l13.684,11.934Z" transform="translate(-422.387 48.704)" fill="#bdcce8"/>
      </g>
    </g>
  </g>
</svg>
