<svg xmlns="http://www.w3.org/2000/svg" width="56" height="56" viewBox="0 0 56 56">
  <g id="Grupo_960256" data-name="Grupo 960256" transform="translate(-209 -4229)">
    <circle id="Elipse_5759" data-name="Elipse 5759" cx="28" cy="28" r="28" transform="translate(209 4229)" fill="#80cab6"/>
    <g id="Page-1" transform="translate(219.833 4239.833)">
      <g id="_029---Chlorine" data-name="029---Chlorine">
        <g id="Icons" transform="translate(0.572 0.572)">
          <rect id="Rectangle" width="33" height="33" rx="10" transform="translate(0.428 0.428)" fill="#fec108"/>
          <path id="Path" d="M8.578,4H7.433A3.433,3.433,0,0,0,4,7.433V29.178a3.433,3.433,0,0,0,3.433,3.433H29.178a3.433,3.433,0,0,0,3.433-3.433V7.433A3.433,3.433,0,0,0,29.178,4Z" transform="translate(-1.711 -1.711)" fill="#ffdc00" fill-rule="evenodd"/>
          <path id="Path-2" data-name="Path" d="M46.717,4H45a3.433,3.433,0,0,1,3.433,3.433V29.178A3.433,3.433,0,0,1,45,32.611h1.717a3.433,3.433,0,0,0,3.433-3.433V7.433A3.433,3.433,0,0,0,46.717,4Z" transform="translate(-19.25 -1.711)" fill="#fec108" fill-rule="evenodd"/>
          <g id="Grupo_960150" data-name="Grupo 960150" transform="translate(8.008 4.005)">
            <path id="Path-3" data-name="Path" d="M23.289,15.011a.572.572,0,0,0,.572-.572V7.572a.572.572,0,0,0-.89-.476L21.255,8.241a.572.572,0,0,0,.635.952l.827-.551v5.8a.572.572,0,0,0,.572.572Z" transform="translate(-16.991 -7)" fill="#f5f5f5" fill-rule="evenodd"/>
            <rect id="Rectangle-2" data-name="Rectangle" width="3" height="14" rx="1" transform="translate(13.42 10.422)" fill="#f5f5f5"/>
            <path id="Path-4" data-name="Path" d="M19.576,38.877c2.449,0,4.526-1.139,5.276-4.44a.563.563,0,0,0-.515-.71H23.256a.529.529,0,0,0-.509.4,2.861,2.861,0,0,1-3.17,2.461c-1.8,0-3.456-.624-3.456-5.15s1.659-5.15,3.456-5.15a2.861,2.861,0,0,1,3.17,2.461.529.529,0,0,0,.509.4h1.082a.563.563,0,0,0,.515-.71c-.532-2.335-1.728-3.588-3.25-4.12A6.015,6.015,0,0,0,19.576,24a4.891,4.891,0,0,0-5.018,3.519A11.929,11.929,0,0,0,14,31.438c0,5.636,2.495,7.439,5.579,7.439Z" transform="translate(-13.994 -14.272)" fill="#f5f5f5" fill-rule="evenodd"/>
            <path id="Path-5" data-name="Path" d="M29.5,14.967a.565.565,0,0,0,.22.044.572.572,0,0,0,.528-.352l2.861-6.867A.572.572,0,0,0,32.578,7H28.572a.572.572,0,0,0,0,1.144h3.147l-2.531,6.074a.572.572,0,0,0,.308.748Z" transform="translate(-19.985 -7)" fill="#f5f5f5" fill-rule="evenodd"/>
          </g>
        </g>
        <g id="Icons_copy">
          <path id="Shape" d="M28.039,0H6.294A6.3,6.3,0,0,0,0,6.294V28.039a6.3,6.3,0,0,0,6.294,6.294H28.039a6.3,6.3,0,0,0,6.294-6.294V6.294A6.3,6.3,0,0,0,28.039,0Zm5.15,28.039a5.156,5.156,0,0,1-5.15,5.15H6.294a5.156,5.156,0,0,1-5.15-5.15V6.294a5.156,5.156,0,0,1,5.15-5.15H28.039a5.156,5.156,0,0,1,5.15,5.15Z"/>
          <path id="Path-6" data-name="Path" d="M35.739,4H18.572a.572.572,0,0,0,0,1.144H35.739A2.865,2.865,0,0,1,38.6,8.006V29.75a2.865,2.865,0,0,1-2.861,2.861H34.595a.572.572,0,0,0,0,1.144h1.144a4.01,4.01,0,0,0,4.006-4.006V8.006A4.01,4.01,0,0,0,35.739,4Z" transform="translate(-7.7 -1.711)" fill-rule="evenodd"/>
          <path id="Path-7" data-name="Path" d="M25.172,32.611H8.006A2.865,2.865,0,0,1,5.144,29.75V8.006A2.865,2.865,0,0,1,8.006,5.144H9.15A.572.572,0,0,0,9.15,4H8.006A4.01,4.01,0,0,0,4,8.006V29.75a4.01,4.01,0,0,0,4.006,4.006H25.172a.572.572,0,1,0,0-1.144Z" transform="translate(-1.711 -1.711)" fill-rule="evenodd"/>
          <path id="Path-8" data-name="Path" d="M24.289,16.011a.572.572,0,0,0,.572-.572V8.572a.572.572,0,0,0-.89-.476L22.255,9.241a.572.572,0,0,0,.635.952l.827-.551v5.8a.572.572,0,0,0,.572.572Z" transform="translate(-9.411 -3.422)" fill-rule="evenodd"/>
          <path id="Shape-2" data-name="Shape" d="M40.289,25H39.144A1.144,1.144,0,0,0,38,26.144V39.306a1.144,1.144,0,0,0,1.144,1.144h1.144a1.144,1.144,0,0,0,1.144-1.144V26.144A1.144,1.144,0,0,0,40.289,25ZM39.144,39.306V26.144h1.144V39.306Z" transform="translate(-16.255 -10.694)"/>
          <path id="Shape-3" data-name="Shape" d="M14,32.011c0,6.621,3.345,8.011,6.15,8.011,3.094,0,5.113-1.69,5.837-4.886a1.171,1.171,0,0,0-.225-.993,1.087,1.087,0,0,0-.851-.415H23.829a1.1,1.1,0,0,0-1.061.83,2.307,2.307,0,0,1-2.617,2.031c-1.147,0-2.881,0-2.881-4.578S19,27.433,20.15,27.433a2.307,2.307,0,0,1,2.617,2.031,1.1,1.1,0,0,0,1.061.83h1.082a1.087,1.087,0,0,0,.851-.415,1.171,1.171,0,0,0,.225-.993C25.263,25.69,23.244,24,20.15,24,17.345,24,14,25.39,14,32.011Zm6.15-6.867c2.567,0,4.112,1.306,4.76,4.006l-1.035.027a3.41,3.41,0,0,0-3.725-2.889c-2.784,0-4.025,1.765-4.025,5.722s1.241,5.722,4.025,5.722a3.408,3.408,0,0,0,3.719-2.861l1,.011c-.609,2.689-2.154,3.994-4.721,3.994-3.323,0-5.007-2.311-5.007-6.867S16.829,25.144,20.15,25.144Z" transform="translate(-5.989 -10.267)"/>
          <path id="Path-9" data-name="Path" d="M30.5,15.967a.565.565,0,0,0,.22.044.572.572,0,0,0,.528-.352l2.861-6.867A.572.572,0,0,0,33.578,8H29.572a.572.572,0,0,0,0,1.144h3.147l-2.531,6.074a.572.572,0,0,0,.308.748Z" transform="translate(-12.405 -3.422)" fill-rule="evenodd"/>
        </g>
      </g>
    </g>
  </g>
</svg>
