<svg xmlns="http://www.w3.org/2000/svg" width="75" height="75" viewBox="0 0 75 75">
  <g id="Grupo_960258" data-name="Grupo 960258" transform="translate(-601 -7317)">
    <circle id="Elipse_5765" data-name="Elipse 5765" cx="37.5" cy="37.5" r="37.5" transform="translate(601 7317)" fill="#80cab6"/>
    <g id="botella-de-plastico_1_" data-name="botella-de-plastico (1)" transform="translate(618 7334)">
      <g id="Grupo_960194" data-name="Grupo 960194" transform="translate(0.82 0.82)">
        <path id="Trazado_727025" data-name="Trazado 727025" d="M14.464,10.63,10.63,14.464a2.168,2.168,0,0,0,0,3.055l2.546,2.549.644-.644,5.6-5.6.644-.644L17.52,10.63A2.168,2.168,0,0,0,14.464,10.63Z" transform="translate(-10 -10)" fill="#ffda8f" fill-rule="evenodd"/>
      </g>
      <g id="Grupo_960195" data-name="Grupo 960195" transform="translate(4.64 4.64)">
        <path id="Trazado_727026" data-name="Trazado 727026" d="M74.25,61.261C69.7,56.715,65.625,60.021,63.8,58.2l-1.63-1.63-5.6,5.6L58.2,63.8c1.825,1.825-1.481,5.9,3.065,10.45l1.983,1.983,3.318-3.318a6.794,6.794,0,0,1,6.353-6.353l3.318-3.318Z" transform="translate(-56.566 -56.566)" fill="#b7eabc" fill-rule="evenodd"/>
      </g>
      <g id="Grupo_960196" data-name="Grupo 960196" transform="translate(11.318 11.318)">
        <path id="Trazado_727027" data-name="Trazado 727027" d="M160.076,147.085l-9.11-9.108-3.318,3.318a6.794,6.794,0,0,0-6.353,6.353l-3.318,3.318,9.108,9.11,3.321-3.321a6.785,6.785,0,0,0,6.35-6.35Z" transform="translate(-137.977 -137.977)" fill="#ff7d95" fill-rule="evenodd"/>
      </g>
      <g id="Grupo_960197" data-name="Grupo 960197" transform="translate(20.426 20.426)">
        <path id="Trazado_727028" data-name="Trazado 727028" d="M256.7,256.7a6.776,6.776,0,0,1-4.376,1.974L249.008,262l6.648,6.646a3.8,3.8,0,0,0,6.495-2.69,3.8,3.8,0,0,0,3.8-3.8,3.8,3.8,0,0,0,2.69-6.495L262,249.008l-3.321,3.321A6.776,6.776,0,0,1,256.7,256.7Z" transform="translate(-249.008 -249.008)" fill="#b7eabc" fill-rule="evenodd"/>
      </g>
      <g id="Grupo_960198" data-name="Grupo 960198" transform="translate(0 0)">
        <path id="Trazado_727029" data-name="Trazado 727029" d="M42,29.765a4.6,4.6,0,0,0-1.356-3.27L34.02,19.871,34,19.847l-.025-.022-2.212-2.212a.82.82,0,0,0-1.16,1.16l1.656,1.656-2.739,2.739a.82.82,0,0,0-.239.531A5.965,5.965,0,0,1,23.7,29.279a.821.821,0,0,0-.531.239l-2.739,2.739-7.949-7.949,2.738-2.738a.82.82,0,0,0,.239-.531,5.974,5.974,0,0,1,5.583-5.583.821.821,0,0,0,.531-.239l2.738-2.738,1.038,1.038a.82.82,0,0,0,1.16-1.16l-1.618-1.618h0L22.9,8.755a9.186,9.186,0,0,0-8.043-2.738c-1.252.077-1.981.1-2.407-.327L11.4,4.64l.064-.064a.82.82,0,0,0,0-1.16L8.92.87A2.988,2.988,0,0,0,4.7.87L.87,4.7a2.988,2.988,0,0,0,0,4.215l2.546,2.549a.82.82,0,0,0,.58.241H4a.82.82,0,0,0,.58-.24L4.64,11.4l1.05,1.05c.426.426.4,1.155.327,2.407A9.186,9.186,0,0,0,8.755,22.9l1.983,1.983h0l9.087,9.087.021.023.023.021,6.624,6.624a4.622,4.622,0,0,0,7.832-2.513,4.635,4.635,0,0,0,3.8-3.8A4.632,4.632,0,0,0,42,29.765ZM2.03,7.76a1.348,1.348,0,0,1,0-1.9L5.864,2.03a1.348,1.348,0,0,1,1.9,0L9.728,4,4,9.728Zm5.625,7.2c.085-1.387.165-2.7-.8-3.667L5.8,10.244,10.244,5.8l1.05,1.05c.969.969,2.28.889,3.667.8,2-.122,4.262-.261,6.783,2.261l1.4,1.4-2.525,2.525a7.618,7.618,0,0,0-6.778,6.778l-2.525,2.525-1.4-1.4c-2.522-2.521-2.383-4.785-2.261-6.783Zm30.45,17.7A4.605,4.605,0,0,0,36.84,30.3a.82.82,0,1,0-1.162,1.158,2.984,2.984,0,1,1-4.221,4.221A.82.82,0,0,0,30.3,36.841,4.606,4.606,0,0,0,32.658,38.1a2.982,2.982,0,0,1-5,1.379l-6.067-6.067,2.526-2.526a7.608,7.608,0,0,0,6.776-6.776l2.526-2.526,6.067,6.067a2.982,2.982,0,0,1-1.379,5Z" transform="translate(0 0)"/>
        <path id="Trazado_727030" data-name="Trazado 727030" d="M217.84,210.166a.821.821,0,0,0-1.16,0l-5.381,5.381a.82.82,0,1,0,1.16,1.16l5.381-5.381A.82.82,0,0,0,217.84,210.166Z" transform="translate(-193.746 -192.705)"/>
        <path id="Trazado_727031" data-name="Trazado 727031" d="M250.7,244.182l-5.381,5.381a.82.82,0,1,0,1.16,1.16l5.381-5.381a.82.82,0,0,0-1.16-1.16Z" transform="translate(-224.971 -223.931)"/>
        <path id="Trazado_727032" data-name="Trazado 727032" d="M337.587,181.313a.817.817,0,0,0,1.158,0,.822.822,0,1,0-1.162,0Z" transform="translate(-309.67 -165.15)"/>
      </g>
    </g>
  </g>
</svg>
