<svg xmlns="http://www.w3.org/2000/svg" width="75" height="75" viewBox="0 0 75 75">
  <g id="Grupo_960259" data-name="Grupo 960259" transform="translate(-916 -7317)">
    <circle id="Elipse_5766" data-name="Elipse 5766" cx="37.5" cy="37.5" r="37.5" transform="translate(916 7317)" fill="#80cab6"/>
    <g id="tarro-de-dulces" transform="translate(932.5 7332.381)">
      <path id="Trazado_726963" data-name="Trazado 726963" d="M18.879,107.014H36.825a4.849,4.849,0,0,0,2.9-.958,19.85,19.85,0,0,0,1.319-30.734v-5.9H14.655v5.9a19.85,19.85,0,0,0,1.319,30.734,4.849,4.849,0,0,0,2.9.958Zm0,0" transform="translate(-6.852 -63.424)" fill="#f9efd1"/>
      <path id="Trazado_726964" data-name="Trazado 726964" d="M10.592,90.15a19.8,19.8,0,0,1,6.655-14.829v-5.9H14.655v5.9a19.85,19.85,0,0,0,1.319,30.734,4.848,4.848,0,0,0,2.9.958h2.592a4.848,4.848,0,0,1-2.9-.958A19.82,19.82,0,0,1,10.592,90.15Zm0,0" transform="translate(-6.852 -63.424)" fill="#e6ddc1"/>
      <path id="Trazado_726965" data-name="Trazado 726965" d="M302.107,253.607a5.678,5.678,0,1,1-5.678-5.678A5.678,5.678,0,0,1,302.107,253.607Zm0,0" transform="translate(-265.172 -226.507)" fill="#c2e3ee"/>
      <path id="Trazado_726966" data-name="Trazado 726966" d="M292.949,253.607a5.679,5.679,0,0,1,4.578-5.571,5.678,5.678,0,1,0,0,11.142,5.68,5.68,0,0,1-4.578-5.571Zm0,0" transform="translate(-265.171 -226.507)" fill="#add9e8"/>
      <path id="Trazado_726967" data-name="Trazado 726967" d="M64.689,253.607a5.678,5.678,0,1,1-5.678-5.678A5.678,5.678,0,0,1,64.689,253.607Zm0,0" transform="translate(-48.267 -226.507)" fill="#62c397"/>
      <path id="Trazado_726968" data-name="Trazado 726968" d="M55.535,253.607a5.679,5.679,0,0,1,4.578-5.571,5.678,5.678,0,1,0,0,11.142,5.679,5.679,0,0,1-4.578-5.571Zm0,0" transform="translate(-48.27 -226.507)" fill="#20ab6c"/>
      <path id="Trazado_726969" data-name="Trazado 726969" d="M183.4,275.979a5.678,5.678,0,1,1-5.678-5.678A5.678,5.678,0,0,1,183.4,275.979Zm0,0" transform="translate(-156.717 -246.946)" fill="#e8a8c2"/>
      <path id="Trazado_726970" data-name="Trazado 726970" d="M174.239,275.979a5.68,5.68,0,0,1,4.578-5.571,5.678,5.678,0,1,0,0,11.142A5.68,5.68,0,0,1,174.239,275.979Zm0,0" transform="translate(-156.717 -246.946)" fill="#db9eb7"/>
      <path id="Trazado_726971" data-name="Trazado 726971" d="M90.149,343.768a5.678,5.678,0,1,1-5.678-5.678A5.678,5.678,0,0,1,90.149,343.768Zm0,0" transform="translate(-71.527 -308.878)" fill="#ab8ecd"/>
      <path id="Trazado_726972" data-name="Trazado 726972" d="M80.993,343.768a5.679,5.679,0,0,1,4.578-5.571,5.678,5.678,0,1,0,0,11.142A5.679,5.679,0,0,1,80.993,343.768Zm0,0" transform="translate(-71.528 -308.878)" fill="#9d7bc6"/>
      <path id="Trazado_726973" data-name="Trazado 726973" d="M276.646,343.768a5.678,5.678,0,1,1-5.678-5.678A5.678,5.678,0,0,1,276.646,343.768Zm0,0" transform="translate(-241.911 -308.878)" fill="#e3637b"/>
      <path id="Trazado_726974" data-name="Trazado 726974" d="M267.489,343.768a5.679,5.679,0,0,1,4.578-5.571,5.678,5.678,0,1,0,0,11.142A5.679,5.679,0,0,1,267.489,343.768Zm0,0" transform="translate(-241.91 -308.878)" fill="#d75e74"/>
      <path id="Trazado_726975" data-name="Trazado 726975" d="M183.4,360.74a5.678,5.678,0,1,1-5.678-5.678A5.678,5.678,0,0,1,183.4,360.74Zm0,0" transform="translate(-156.717 -324.384)" fill="#f5d96c"/>
      <path id="Trazado_726976" data-name="Trazado 726976" d="M174.239,360.741a5.68,5.68,0,0,1,4.578-5.571,5.678,5.678,0,1,0,0,11.142A5.68,5.68,0,0,1,174.239,360.741Zm0,0" transform="translate(-156.717 -324.384)" fill="#eaca65"/>
      <path id="Trazado_726977" data-name="Trazado 726977" d="M85.02,69.422h26.394v5.9H85.02Zm0,0" transform="translate(-77.217 -63.424)" fill="#e6ddc1"/>
      <path id="Trazado_726978" data-name="Trazado 726978" d="M85.02,69.422h2.592v5.9H85.02Zm0,0" transform="translate(-77.217 -63.424)" fill="#ddd3b8"/>
      <path id="Trazado_726979" data-name="Trazado 726979" d="M87.49,15.3H58.953a1.293,1.293,0,0,1-1.293-1.293V8.793A1.293,1.293,0,0,1,58.953,7.5H87.49a1.293,1.293,0,0,1,1.293,1.293v5.215A1.293,1.293,0,0,1,87.49,15.3Zm0,0" transform="translate(-52.221 -6.852)" fill="#d0d1d2"/>
      <path id="Trazado_726980" data-name="Trazado 726980" d="M60.252,14.008V8.793A1.293,1.293,0,0,1,61.545,7.5H58.953A1.293,1.293,0,0,0,57.66,8.793v5.215A1.293,1.293,0,0,0,58.953,15.3h2.592A1.293,1.293,0,0,1,60.252,14.008Zm0,0" transform="translate(-52.221 -6.852)" fill="#bbbcbd"/>
      <path id="Trazado_726981" data-name="Trazado 726981" d="M34.845,11.61V9.1h.423a1.943,1.943,0,0,0,1.941-1.941V1.941A1.943,1.943,0,0,0,35.269,0H6.731A1.943,1.943,0,0,0,4.791,1.941V7.156A1.943,1.943,0,0,0,6.731,9.1h.424v2.514A20.524,20.524,0,0,0,.5,26.727a20.274,20.274,0,0,0,2.243,9.332,20.687,20.687,0,0,0,5.99,7.093,5.529,5.529,0,0,0,3.293,1.086H29.973a5.529,5.529,0,0,0,3.293-1.086,20.69,20.69,0,0,0,5.99-7.093A20.275,20.275,0,0,0,41.5,26.727,20.525,20.525,0,0,0,34.845,11.61ZM30.985,1.3h4.284a.645.645,0,0,1,.645.645V7.156a.645.645,0,0,1-.645.645H30.985Zm-6.224,0h4.928V7.8H24.76Zm-6.225,0h4.929V7.8H18.536Zm-6.224,0H17.24V7.8H12.311ZM6.731,7.8a.645.645,0,0,1-.645-.645V1.941A.645.645,0,0,1,6.731,1.3h4.284V7.8H6.731ZM32.49,42.114a4.224,4.224,0,0,1-2.517.828H12.027a4.226,4.226,0,0,1-2.517-.828A19.2,19.2,0,0,1,8.054,12.546H27.243a.648.648,0,1,0,0-1.3H8.451V9.1h25.1V11.25H29.662a.648.648,0,0,0,0,1.3h4.284A19.2,19.2,0,0,1,32.49,42.114ZM37.583,27.1a6.326,6.326,0,0,0-12.118-2.544,6.316,6.316,0,0,0-8.931,0,6.326,6.326,0,1,0-9.369,7.761,6.325,6.325,0,0,0,8.945,8.049,6.318,6.318,0,0,0,9.779,0,6.324,6.324,0,0,0,8.945-8.049A6.33,6.33,0,0,0,37.583,27.1ZM21,24a5.036,5.036,0,0,1,5.03,5.03c0,.1,0,.2-.009.306a6.322,6.322,0,0,0-1.858,1.542,6.3,6.3,0,0,0-6.326,0A6.329,6.329,0,0,0,15.98,29.34c-.006-.1-.01-.205-.01-.307A5.036,5.036,0,0,1,21,24ZM5.713,27.1a5.03,5.03,0,0,1,9.878-1.345,6.289,6.289,0,0,0-.911,3.052,6.321,6.321,0,0,0-6.864,2.384,5.053,5.053,0,0,1-2.1-4.091Zm7.23,12.82a5.03,5.03,0,1,1,3.841-8.276,6.311,6.311,0,0,0-1.39,7.639,4.993,4.993,0,0,1-2.451.637ZM21,41.387a5.03,5.03,0,1,1,5.03-5.03A5.036,5.036,0,0,1,21,41.387Zm8.057-1.466a4.994,4.994,0,0,1-2.451-.637,6.311,6.311,0,0,0-1.391-7.64,5.03,5.03,0,1,1,3.842,8.277Zm0-11.357a6.342,6.342,0,0,0-1.736.242,6.287,6.287,0,0,0-.911-3.051,5.031,5.031,0,1,1,7.775,5.436,6.321,6.321,0,0,0-5.127-2.627Zm0,0"/>
    </g>
  </g>
</svg>
