<svg xmlns="http://www.w3.org/2000/svg" width="75" height="75" viewBox="0 0 75 75">
  <g id="Grupo_960257" data-name="Grupo 960257" transform="translate(-286 -7317)">
    <circle id="Elipse_5764" data-name="Elipse 5764" cx="37.5" cy="37.5" r="37.5" transform="translate(286 7317)" fill="#80cab6"/>
    <g id="_03-warm_hot" data-name="03-warm hot" transform="translate(300.002 7330)">
      <path id="Trazado_727033" data-name="Trazado 727033" d="M19,27.515V8A7,7,0,1,0,5,8V27.515a11,11,0,1,0,14,0Z" fill="#e9edf5"/>
      <path id="Trazado_727034" data-name="Trazado 727034" d="M16,29.079V8A4,4,0,0,0,8,8V29.079a8,8,0,1,0,8,0Z" fill="#cdd2e1"/>
      <path id="Trazado_727035" data-name="Trazado 727035" d="M12,41a8,8,0,0,1-7.849-6.464,8,8,0,1,0,15.7,0A8,8,0,0,1,12,41Z" fill="#9da3b5"/>
      <path id="Trazado_727036" data-name="Trazado 727036" d="M23,36a10.975,10.975,0,0,0-4-8.485V8a7,7,0,0,0-7-7V4a4,4,0,0,1,4,4V29.079a7.99,7.99,0,0,1,3.943,6.081A6.849,6.849,0,0,1,20,36a8,8,0,0,1-8,8v3A11,11,0,0,0,23,36Z" fill="#f7faff"/>
      <path id="Trazado_727037" data-name="Trazado 727037" d="M19.849,34.536c.038.206.068.414.094.624A7.99,7.99,0,0,0,16,29.079V8a4,4,0,0,0-4-4V41a8,8,0,0,0,7.849-6.464Z" fill="#dce1eb"/>
      <path id="Trazado_727038" data-name="Trazado 727038" d="M12,41v3a7.888,7.888,0,0,0,7.943-8.84c-.026-.21-.056-.418-.094-.624A8,8,0,0,1,12,41Z" fill="#afb4c8"/>
      <path id="Trazado_727039" data-name="Trazado 727039" d="M12,41v3a7.888,7.888,0,0,0,7.943-8.84c-.026-.21-.056-.418-.094-.624A8,8,0,0,1,12,41Z" fill="#f03049"/>
      <path id="Trazado_727040" data-name="Trazado 727040" d="M16,29.079V13H12V41a8,8,0,0,0,7.843-6.439A7.983,7.983,0,0,0,16,29.079Z" fill="#ff636e"/>
      <path id="Trazado_727041" data-name="Trazado 727041" d="M12,41v3a7.888,7.888,0,0,1-7.943-8.84c.026-.21.056-.418.094-.624A8,8,0,0,0,12,41Z" fill="#a30034"/>
      <path id="Trazado_727042" data-name="Trazado 727042" d="M8,29.079V13h4V41a8,8,0,0,1-7.843-6.439A7.983,7.983,0,0,1,8,29.079Z" fill="#d1093a"/>
      <ellipse id="Elipse_5776" data-name="Elipse 5776" cx="1.642" cy="2.286" rx="1.642" ry="2.286" transform="translate(12.897 35.25) rotate(-45)" fill="#f6fafd"/>
      <ellipse id="Elipse_5777" data-name="Elipse 5777" cx="0.825" cy="1.148" rx="0.825" ry="1.148" transform="translate(15.278 32.49) rotate(-45)" fill="#f6fafd"/>
      <circle id="Elipse_5778" data-name="Elipse 5778" cx="6" cy="6" r="6" transform="translate(29 10)" fill="#ffd747"/>
      <path id="Trazado_727043" data-name="Trazado 727043" d="M31,12c0-.164.012-.325.025-.485a6,6,0,1,0,9.95,4.97A5.992,5.992,0,0,1,31,12Z" fill="#ffb13b"/>
      <path id="Trazado_727044" data-name="Trazado 727044" d="M30,16a5,5,0,0,1,9.715-1.669l1.886-.667A7,7,0,0,0,28,16Z"/>
      <path id="Trazado_727045" data-name="Trazado 727045" d="M40,16a5,5,0,0,1-9.716,1.665l-1.886.666A7,7,0,0,0,42,16Z"/>
      <path id="Trazado_727046" data-name="Trazado 727046" d="M34,4h2V8H34Z"/>
      <path id="Trazado_727047" data-name="Trazado 727047" d="M34,24h2v4H34Z"/>
      <path id="Trazado_727048" data-name="Trazado 727048" d="M43,15h4v2H43Z"/>
      <path id="Trazado_727049" data-name="Trazado 727049" d="M23,15h4v2H23Z"/>
      <path id="Trazado_727050" data-name="Trazado 727050" d="M40.071,7.929h4v2h-4Z" transform="translate(6.009 32.364) rotate(-45)"/>
      <path id="Trazado_727051" data-name="Trazado 727051" d="M25.929,22.071h4v2h-4Z" transform="translate(-8.133 26.506) rotate(-45)"/>
      <path id="Trazado_727052" data-name="Trazado 727052" d="M41.071,21.071h2v4h-2Z" transform="translate(-3.991 36.506) rotate(-45)"/>
      <path id="Trazado_727053" data-name="Trazado 727053" d="M26.929,6.929h2v4h-2Z" transform="translate(1.866 22.364) rotate(-45)"/>
      <path id="Trazado_727054" data-name="Trazado 727054" d="M4,22H6v2H4Z"/>
      <path id="Trazado_727055" data-name="Trazado 727055" d="M20,27.056V8A8,8,0,0,0,4,8V20H6V8A6,6,0,0,1,18,8H13v2h5v2H9V8a3,3,0,0,1,5.906-.751l1.936-.5A5,5,0,0,0,7,8V28.525a9,9,0,1,0,10,0V27H15v2.079a1,1,0,0,0,.5.865,7,7,0,1,1-7,0,1,1,0,0,0,.5-.865V14h9v2H13v2h5v2H13v2h5v2H13v2h5v1.515a1,1,0,0,0,.363.771,10,10,0,1,1-12.726,0A1,1,0,0,0,6,27.515V26H4v1.056a12,12,0,1,0,16,0Z"/>
    </g>
  </g>
</svg>
