<svg xmlns="http://www.w3.org/2000/svg" width="75" height="75" viewBox="0 0 75 75">
  <g id="Grupo_960260" data-name="Grupo 960260" transform="translate(-391 -7508)">
    <circle id="Elipse_5768" data-name="Elipse 5768" cx="37.5" cy="37.5" r="37.5" transform="translate(391 7508)" fill="#80cab6"/>
    <g id="Filled_outline" data-name="Filled outline" transform="translate(388.005 7505)">
      <path id="Trazado_726982" data-name="Trazado 726982" d="M79.441,24,56,47.441l2.686,2.686L70.55,61.991,93.991,38.55V24Zm9.7,6.467a1.612,1.612,0,1,1,1.145-.472,1.617,1.617,0,0,1-1.145.472Z" transform="translate(-35.962 -7.192)" fill="#348fd9"/>
      <path id="Trazado_726983" data-name="Trazado 726983" d="M115.632,24q-.912,1.76-1.907,3.388a1.617,1.617,0,1,1-1.748,2.685c-7.665,11.019-18.241,17.14-29.4,20.055L94.444,61.991,117.886,38.55V24Z" transform="translate(-59.857 -7.192)" fill="#3086cd"/>
      <path id="Trazado_726984" data-name="Trazado 726984" d="M252.137,94.466a1.755,1.755,0,0,0-1.083-3.215,1.81,1.81,0,0,0-2.834-1.987,1.846,1.846,0,0,0-3.5,0,1.81,1.81,0,0,0-2.834,1.987,1.755,1.755,0,0,0-1.082,3.215,1.755,1.755,0,0,0,1.083,3.215,1.81,1.81,0,0,0,2.834,1.987,1.846,1.846,0,0,0,3.5,0,1.81,1.81,0,0,0,2.834-1.987,1.755,1.755,0,0,0,1.082-3.215Z" transform="translate(-201.373 -64.725)" fill="#ffb531"/>
      <path id="Trazado_726985" data-name="Trazado 726985" d="M104,28.042A5.555,5.555,0,0,0,108.042,24a5.554,5.554,0,0,0,4.042,4.042,5.554,5.554,0,0,0-4.042,4.042A5.555,5.555,0,0,0,104,28.042Z" transform="translate(-79.112 -7.192)" fill="#ffb531"/>
      <path id="Trazado_726986" data-name="Trazado 726986" d="M416,344h7.275v14.55H416Z" transform="translate(-359.588 -294.859)" fill="#4d5e78"/>
      <path id="Trazado_726987" data-name="Trazado 726987" d="M63.605,339.233v12.125H38.457a6.454,6.454,0,0,1-2.892-.683l-9.919-4.959A2.983,2.983,0,0,1,27,340.065l.348,0a2.982,2.982,0,0,1,1.3.312l9.084,4.512h3.233a3.233,3.233,0,1,1,0-6.467h7.005l1.6-.9a11.874,11.874,0,0,1,12.657.641c.2.139.391.285.581.437Z" transform="translate(-7.193 -287.667)" fill="#fec9a3"/>
      <path id="Trazado_726988" data-name="Trazado 726988" d="M224.818,358.5v12.125H203.33a41.424,41.424,0,0,0,20.118-13.193c.2.139.391.285.581.437Z" transform="translate(-168.406 -306.932)" fill="#fec093"/>
      <path id="Trazado_726989" data-name="Trazado 726989" d="M57.936,50.521l1.143-1.143L49.951,40.25,72.584,17.617H85.991V20.85H84.235a2.425,2.425,0,1,0,0,1.617h1.756v8.557l-15.93,15.93L71.2,48.1,87.371,31.93a.808.808,0,0,0,.237-.572V27.317h2.425a3.233,3.233,0,0,0,0-6.467H87.608V16.808A.808.808,0,0,0,86.8,16H72.249a.808.808,0,0,0-.572.237L48.236,39.678a.808.808,0,0,0,0,1.143Zm23.2-28.863a.809.809,0,0,1,.808-.808v1.617A.809.809,0,0,1,81.141,21.658Zm8.892.808a1.617,1.617,0,1,1,0,3.233H87.608V22.467Z" transform="translate(-28.77)"/>
      <path id="Trazado_726990" data-name="Trazado 726990" d="M232.085,89.483a2.577,2.577,0,0,0,1.649,1.676,2.507,2.507,0,0,0,1.034,1.959,2.662,2.662,0,0,0,2.372.426,2.7,2.7,0,0,0,4.2,0,2.662,2.662,0,0,0,2.372-.426,2.507,2.507,0,0,0,1.034-1.959,2.577,2.577,0,0,0,1.649-1.676,2.472,2.472,0,0,0-.336-2.208,2.472,2.472,0,0,0,.336-2.208,2.577,2.577,0,0,0-1.649-1.676,2.507,2.507,0,0,0-1.034-1.959,2.662,2.662,0,0,0-2.372-.426,2.7,2.7,0,0,0-4.2,0,2.662,2.662,0,0,0-2.372.426,2.507,2.507,0,0,0-1.034,1.959,2.576,2.576,0,0,0-1.649,1.676,2.472,2.472,0,0,0,.336,2.208A2.472,2.472,0,0,0,232.085,89.483Zm1.932-2.882a.892.892,0,0,1-.39-1.048.979.979,0,0,1,1.006-.685.808.808,0,0,0,.78-1.088.9.9,0,0,1,.325-1.055,1.031,1.031,0,0,1,1.269,0,.808.808,0,0,0,1.255-.413,1.038,1.038,0,0,1,1.957,0,.808.808,0,0,0,1.255.413,1.031,1.031,0,0,1,1.269,0,.9.9,0,0,1,.325,1.055.808.808,0,0,0,.78,1.088.982.982,0,0,1,1.006.685.892.892,0,0,1-.39,1.048.808.808,0,0,0,0,1.348.892.892,0,0,1,.39,1.048.98.98,0,0,1-1.006.685.808.808,0,0,0-.78,1.088.9.9,0,0,1-.325,1.055,1.031,1.031,0,0,1-1.269,0,.808.808,0,0,0-1.255.413,1.038,1.038,0,0,1-1.957,0,.808.808,0,0,0-1.255-.413,1.032,1.032,0,0,1-1.269,0,.9.9,0,0,1-.325-1.055.808.808,0,0,0-.78-1.088A.978.978,0,0,1,233.627,89a.892.892,0,0,1,.39-1.048.808.808,0,0,0,0-1.348Z" transform="translate(-194.145 -57.534)"/>
      <path id="Trazado_726991" data-name="Trazado 726991" d="M0,0H6.859V1.617H0Z" transform="translate(23.504 40.485) rotate(-45)"/>
      <path id="Trazado_726992" data-name="Trazado 726992" d="M0,0H6.859V1.617H0Z" transform="translate(25.929 42.91) rotate(-45)"/>
      <path id="Trazado_726993" data-name="Trazado 726993" d="M0,0H6.859V1.617H0Z" transform="translate(28.353 45.335) rotate(-45)"/>
      <path id="Trazado_726994" data-name="Trazado 726994" d="M0,0H6.859V1.617H0Z" transform="translate(30.778 47.76) rotate(-45)"/>
      <path id="Trazado_726995" data-name="Trazado 726995" d="M0,0H3.429V1.617H0Z" transform="translate(35.627 47.76) rotate(-45)"/>
      <path id="Trazado_726996" data-name="Trazado 726996" d="M0,0H1.617V2.786H0Z" transform="translate(33.204 32.738) rotate(-45)"/>
      <path id="Trazado_726997" data-name="Trazado 726997" d="M0,0H1.617V7.145H0Z" transform="translate(36.234 35.77) rotate(-45)"/>
      <path id="Trazado_726998" data-name="Trazado 726998" d="M96.613,21.635a4.738,4.738,0,0,1,3.453,3.453.808.808,0,0,0,1.568,0,4.738,4.738,0,0,1,3.453-3.453.808.808,0,0,0,0-1.568,4.738,4.738,0,0,1-3.453-3.453.808.808,0,0,0-1.568,0,4.738,4.738,0,0,1-3.453,3.453.808.808,0,0,0,0,1.568Zm4.238-2.787a6.344,6.344,0,0,0,2,2,6.344,6.344,0,0,0-2,2,6.344,6.344,0,0,0-2-2A6.344,6.344,0,0,0,100.851,18.848Z" transform="translate(-71.922 -0.001)"/>
      <path id="Trazado_726999" data-name="Trazado 726999" d="M0,0H8.621V1.617H0Z" transform="translate(48.559 44.529) rotate(-45)"/>
      <path id="Trazado_727000" data-name="Trazado 727000" d="M0,0H2.286V1.617H0Z" transform="translate(55.834 37.255) rotate(-45)"/>
      <path id="Trazado_727001" data-name="Trazado 727001" d="M63.687,328.808H56.412a.808.808,0,0,0-.808.808v.766a12.679,12.679,0,0,0-13.615-.754l-1.416.8H33.779a4.04,4.04,0,0,0-3.336,6.321l-8.622-4.283a3.815,3.815,0,0,0-1.658-.4l-.347,0a3.792,3.792,0,0,0-1.725,7.183l9.919,4.959a7.31,7.31,0,0,0,3.254.768H63.687a.808.808,0,0,0,.808-.808v-14.55a.808.808,0,0,0-.808-.808ZM28.734,342.76,18.815,337.8a2.175,2.175,0,0,1,.972-4.12H19.8l.347,0a2.189,2.189,0,0,1,.951.227l9.084,4.513a.81.81,0,0,0,.36.084H41.054a.808.808,0,1,0,0-1.617H33.779a2.425,2.425,0,0,1,0-4.85h7.005a.808.808,0,0,0,.4-.1l1.6-.9a11.065,11.065,0,0,1,12.337,1l.486.388v10.928H31.264A5.687,5.687,0,0,1,28.734,342.76Zm34.145.6H57.221V330.425h5.658Z" transform="translate(0 -280.475)"/>
      <path id="Trazado_727002" data-name="Trazado 727002" d="M441.212,434.425A1.212,1.212,0,1,0,440,433.212a1.213,1.213,0,0,0,1.212,1.213Z" transform="translate(-381.163 -373.967)"/>
      <path id="Trazado_727003" data-name="Trazado 727003" d="M0,0H1.617V9.145H0Z" transform="translate(31.587 35.971) rotate(-45)"/>
    </g>
  </g>
</svg>
